<?xml version="1.0" standalone="no"?>
<!DOCTYPE svg PUBLIC "-//W3C//DTD SVG 1.1//EN" "http://www.w3.org/Graphics/SVG/1.1/DTD/svg11.dtd" >
<svg xmlns="http://www.w3.org/2000/svg" xmlns:xlink="http://www.w3.org/1999/xlink" version="1.1">
<metadata>
Created by FontForge 20201107 at Fri Feb 23 16:32:32 2024
 By 
</metadata>
<defs>
<font id="EquinoxTrial" horiz-adv-x="0" >
  <font-face 
    font-family="Equinox Trial"
    font-weight="400"
    font-stretch="normal"
    units-per-em="2048"
    panose-1="0 0 0 0 0 0 0 0 0 0"
    ascent="1638"
    descent="-410"
    cap-height="1433"
    bbox="102 -429 2073 1464"
    underline-thickness="0"
    underline-position="0"
    unicode-range="U+000A-00AD"
  />
<missing-glyph horiz-adv-x="1079" 
d="M102 1434h875v-1434h-875v1434zM160 1393l379 -633l381 633h-760zM514 717l-369 614v-1231zM541 674l-379 -631h758zM565 717l371 -621v1239z" />
    <glyph glyph-name=".notdef" horiz-adv-x="1079" 
d="M102 1434h875v-1434h-875v1434zM160 1393l379 -633l381 633h-760zM514 717l-369 614v-1231zM541 674l-379 -631h758zM565 717l371 -621v1239z" />
    <glyph glyph-name=".null" 
 />
    <glyph glyph-name=".null" 
 />
    <glyph glyph-name="nonmarkingreturn" horiz-adv-x="682" 
 />
    <glyph glyph-name="controlLF" unicode="&#xa;" 
 />
    <glyph glyph-name="controlCR" unicode="&#xd;" 
 />
    <glyph glyph-name="space" unicode=" " horiz-adv-x="538" 
 />
    <glyph glyph-name="zero" unicode="0" horiz-adv-x="1234" 
d="M618 -31q-130 0 -229.5 41t-161.5 115.5t-93.5 174t-31.5 221.5t31.5 221.5t93.5 174t161.5 115.5t229.5 41t229.5 -41t161.5 -115.5t93 -174t31 -221.5t-31 -221.5t-93 -174t-161.5 -115.5t-229.5 -41zM618 -6q51 0 91 8t69 29.5t49 40t33 60.5t20 69t10 86.5t3.5 92
t0.5 105.5v36q0 216 -9 285q-19 151 -104 204q-61 38 -163 38q-51 0 -91 -8t-69 -29.5t-49 -40.5t-33 -61t-20 -68.5t-10 -86.5t-3.5 -92t-0.5 -105v-36q0 -216 9 -285q19 -151 104 -204q61 -38 163 -38z" />
    <glyph glyph-name="one" unicode="1" horiz-adv-x="843" 
d="M363 1048h194v-1021h184v-27h-562v27h184v979l-261 -308v43z" />
    <glyph glyph-name="two" unicode="2" horiz-adv-x="1155" 
d="M1031 378h22v-378h-951v191q1 75 40.5 126t102 76t138 42.5t150.5 34.5t137 42.5t101 76t39 125.5q0 184 -66.5 256.5t-241.5 72.5q-318 0 -380 -195h-20v225h20l50 -89q45 26 70.5 38.5t100 30.5t159.5 18q92 0 164 -6.5t147 -28t124 -57.5t80.5 -98t31.5 -147
q0 -73 -50 -127t-130 -85t-176.5 -55.5t-193.5 -46.5t-177 -49t-130 -72.5t-50 -107.5h484q43 0 117 -1q68 -3 118 -0.5t82.5 9.5t52 28.5t27.5 56.5t8 94z" />
    <glyph glyph-name="three" unicode="3" horiz-adv-x="1114" 
d="M557 398q126 0 227 -40t164.5 -125.5t63.5 -205.5q0 -101 -23.5 -170.5t-80 -120t-153.5 -74t-241 -23.5q-30 0 -58.5 2t-53 7.5t-44.5 10t-41 13.5t-33.5 14t-30.5 16.5t-24.5 15t-23 15.5t-18.5 13l-65 -107h-20v269h20q35 -118 140 -180t252 -62q66 0 118 32t82 85
t45.5 115.5t15.5 128.5q0 356 -353 356v26q175 9 263 81.5t88 230.5v9q0 63 -1.5 92.5t-8 74.5t-22 65.5t-42.5 43.5t-71 31.5t-106 8.5q-341 0 -400 -243h-20v270h20l45 -108q1 1 23.5 17t31.5 21t34.5 19t48 20t56 14.5t74 12t87.5 3.5q249 0 366.5 -78.5t119.5 -245.5
q0 -50 -7 -91t-25 -72t-38 -54.5t-54.5 -42t-64 -30.5t-78.5 -22.5t-86.5 -16.5t-97.5 -15v-6z" />
    <glyph glyph-name="four" unicode="4" horiz-adv-x="1198" 
d="M102 142q187 205 245 275q200 244 256 454q27 99 27 201h194q0 -64 -19 -131t-45 -122.5t-77 -123.5t-90.5 -115t-110.5 -116.5t-113.5 -107.5t-123 -110t-115.5 -104h500v300h194v-300h272v-27h-272v-449h184v-27h-563v27h185v449h-528v27z" />
    <glyph glyph-name="five" unicode="5" horiz-adv-x="1064" 
d="M181 514q117 0 170.5 -0.5t142 -3.5t125 -9t98 -18t84 -29.5t60 -44.5t49.5 -62t28.5 -82.5t20.5 -105.5t4 -132q0 -218 -103 -303t-370 -85q-96 0 -187 24t-130 51l-55 -75h-16v270h20q22 -83 86.5 -140t136.5 -80t145 -23q58 0 99 2t90.5 10.5t84 23t69 41.5t55.5 64.5
t34 93t13 126.5q0 49 -14 87.5t-48.5 65.5t-68.5 47t-98.5 32t-112.5 19.5t-136 10.5t-143.5 3.5t-160.5 0.5v779h772v-188v-89h-21l-55 88h-96h-235h-337v-369z" />
    <glyph glyph-name="six" unicode="6" horiz-adv-x="1165" 
d="M631 -26q-65 0 -135 22t-141 72t-127 122t-91 182t-35 242q0 141 47 287.5t124.5 264.5t187.5 193t227 75q23 0 43 -1.5t38 -5t31 -6t28.5 -9t23 -9t21.5 -11.5t17.5 -11t17.5 -11.5t15 -10.5l55 75h16v-268h-19q-21 125 -100 186t-187 61q-71 0 -130 -46t-99 -121.5
t-68.5 -176.5t-42.5 -206t-16 -215q14 67 52 115.5t86 71t87.5 32t73.5 9.5q79 0 155.5 -30.5t138.5 -85.5t100 -140t38 -186t-38 -189t-100 -146t-139 -91.5t-155 -33.5zM631 845q-131 0 -210.5 -107t-79.5 -304q0 -199 80.5 -316t209.5 -117q50 0 85 20t56 53.5t32.5 91
t15.5 118.5t4 150q0 88 -4 147t-15.5 113t-32.5 84.5t-56 48.5t-85 18z" />
    <glyph glyph-name="seven" unicode="7" horiz-adv-x="976" 
d="M102 1072h772v-189q-147 -144 -248.5 -295t-157.5 -308t-79.5 -310t-23.5 -331h-194q0 323 170.5 638t505.5 606h-422h-2h-148h-96l-55 -88h-22v277z" />
    <glyph glyph-name="eight" unicode="8" horiz-adv-x="1282" 
d="M641 0q-281 0 -410 100t-129 288q0 166 87 260.5t290 110.5v5q-78 11 -134 36.5t-86.5 55.5t-47.5 75.5t-21.5 84t-4.5 92.5q0 156 113 240.5t343 84.5t343.5 -84.5t113.5 -240.5q0 -54 -4.5 -92.5t-21.5 -84t-47.5 -75.5t-86.5 -55.5t-134 -36.5v-5
q203 -16 289.5 -110.5t86.5 -260.5q0 -188 -129 -288t-410 -100zM641 27q172 0 237 82t65 279q0 100 -13 164t-47 108.5t-92 63.5t-150 19q-91 0 -149.5 -18.5t-92 -63.5t-46.5 -109t-13 -164q0 -197 64.5 -279t236.5 -82zM641 770q34 0 60 1.5t48.5 5.5t38 10t28 15t20 21
t14 28t8 35.5t4 43t1.5 52t0 62.5v38q0 69 -3.5 113t-16.5 88t-36.5 68.5t-64.5 39.5t-101 15q-59 0 -100 -15t-65 -39.5t-36.5 -69t-16 -88t-3.5 -112.5q0 -163 6 -199q11 -69 59 -92q45 -21 156 -21z" />
    <glyph glyph-name="nine" unicode="9" horiz-adv-x="1165" 
d="M534 1099q65 0 135 -22t141 -72t127 -122t91 -182t35 -242q0 -141 -47 -287.5t-124.5 -264.5t-187.5 -193t-227 -75q-23 0 -43 1.5t-38 5t-31 6t-28.5 9t-23 9t-21.5 11.5t-17.5 11t-17.5 11.5t-15 10.5l-55 -75h-16v269h19q21 -125 100 -186.5t187 -61.5q71 0 130 46
t99 121.5t68.5 176.5t42.5 206t16 215q-14 -67 -52 -115.5t-86 -71t-87.5 -32t-73.5 -9.5q-79 0 -155.5 30.5t-138.5 85.5t-100 140t-38 186t38 189t100 146t139 91.5t155 33.5zM534 228q131 0 210.5 107t79.5 304q0 199 -80.5 316t-209.5 117q-50 0 -85 -20t-56 -53.5
t-32.5 -91t-15.5 -118.5t-4 -150q0 -88 4 -147t15.5 -113t32.5 -84.5t56 -48.5t85 -18z" />
    <glyph glyph-name="A" unicode="A" horiz-adv-x="1624" 
d="M1398 27h123v-27h-424v27h114l-186 440h-572l-168 -440h160v-27h-343v27h149l533 1408zM463 494h551l-290 685z" />
    <glyph glyph-name="A" unicode="&#xe5;" horiz-adv-x="1624" 
d="M1398 27h123v-27h-424v27h114l-186 440h-572l-168 -440h160v-27h-343v27h149l533 1408zM463 494h551l-290 685z" />
    <glyph glyph-name="A" unicode="&#xe4;" horiz-adv-x="1624" 
d="M1398 27h123v-27h-424v27h114l-186 440h-572l-168 -440h160v-27h-343v27h149l533 1408zM463 494h551l-290 685z" />
    <glyph glyph-name="A" unicode="&#xe3;" horiz-adv-x="1624" 
d="M1398 27h123v-27h-424v27h114l-186 440h-572l-168 -440h160v-27h-343v27h149l533 1408zM463 494h551l-290 685z" />
    <glyph glyph-name="A" unicode="&#xe2;" horiz-adv-x="1624" 
d="M1398 27h123v-27h-424v27h114l-186 440h-572l-168 -440h160v-27h-343v27h149l533 1408zM463 494h551l-290 685z" />
    <glyph glyph-name="A" unicode="&#xe1;" horiz-adv-x="1624" 
d="M1398 27h123v-27h-424v27h114l-186 440h-572l-168 -440h160v-27h-343v27h149l533 1408zM463 494h551l-290 685z" />
    <glyph glyph-name="A" unicode="&#xe0;" horiz-adv-x="1624" 
d="M1398 27h123v-27h-424v27h114l-186 440h-572l-168 -440h160v-27h-343v27h149l533 1408zM463 494h551l-290 685z" />
    <glyph glyph-name="A" unicode="&#xc5;" horiz-adv-x="1624" 
d="M1398 27h123v-27h-424v27h114l-186 440h-572l-168 -440h160v-27h-343v27h149l533 1408zM463 494h551l-290 685z" />
    <glyph glyph-name="A" unicode="&#xc4;" horiz-adv-x="1624" 
d="M1398 27h123v-27h-424v27h114l-186 440h-572l-168 -440h160v-27h-343v27h149l533 1408zM463 494h551l-290 685z" />
    <glyph glyph-name="A" unicode="&#xc3;" horiz-adv-x="1624" 
d="M1398 27h123v-27h-424v27h114l-186 440h-572l-168 -440h160v-27h-343v27h149l533 1408zM463 494h551l-290 685z" />
    <glyph glyph-name="A" unicode="&#xc2;" horiz-adv-x="1624" 
d="M1398 27h123v-27h-424v27h114l-186 440h-572l-168 -440h160v-27h-343v27h149l533 1408zM463 494h551l-290 685z" />
    <glyph glyph-name="A" unicode="&#xc1;" horiz-adv-x="1624" 
d="M1398 27h123v-27h-424v27h114l-186 440h-572l-168 -440h160v-27h-343v27h149l533 1408zM463 494h551l-290 685z" />
    <glyph glyph-name="A" unicode="&#xc0;" horiz-adv-x="1624" 
d="M1398 27h123v-27h-424v27h114l-186 440h-572l-168 -440h160v-27h-343v27h149l533 1408zM463 494h551l-290 685z" />
    <glyph glyph-name="A" unicode="a" horiz-adv-x="1624" 
d="M1398 27h123v-27h-424v27h114l-186 440h-572l-168 -440h160v-27h-343v27h149l533 1408zM463 494h551l-290 685z" />
    <glyph glyph-name="B" unicode="B" horiz-adv-x="1460" 
d="M836 759q144 -12 258.5 -55t188 -125t73.5 -191q0 -191 -160.5 -289.5t-449.5 -98.5h-644v27h180v1379h-180v27h608q157 0 273.5 -34t185.5 -108.5t69 -182.5q0 -122 -106 -219.5t-296 -124.5v-5zM471 1406v-636h195q91 0 151 13t105 47t65.5 95.5t20.5 156.5
q0 160 -92.5 242t-247.5 82h-197zM720 27q405 0 405 361q0 99 -37 170.5t-103.5 110.5t-144 56.5t-172.5 17.5h-197v-716h249z" />
    <glyph glyph-name="B" unicode="b" horiz-adv-x="1460" 
d="M836 759q144 -12 258.5 -55t188 -125t73.5 -191q0 -191 -160.5 -289.5t-449.5 -98.5h-644v27h180v1379h-180v27h608q157 0 273.5 -34t185.5 -108.5t69 -182.5q0 -122 -106 -219.5t-296 -124.5v-5zM471 1406v-636h195q91 0 151 13t105 47t65.5 95.5t20.5 156.5
q0 160 -92.5 242t-247.5 82h-197zM720 27q405 0 405 361q0 99 -37 170.5t-103.5 110.5t-144 56.5t-172.5 17.5h-197v-716h249z" />
    <glyph glyph-name="C" unicode="C" horiz-adv-x="1492" 
d="M852 1433q-164 0 -282 -93.5t-176 -253.5t-58 -369q0 -210 58.5 -370t176.5 -253.5t282 -93.5q187 0 322.5 72.5t193.5 203.5h19v-276h-19l-65 59q-99 -35 -221.5 -60.5t-230.5 -25.5q-139 1 -275 59.5t-241 157t-169.5 237.5t-64.5 290q0 150 64.5 289.5t169.5 237.5
t241 157t275 59q108 0 230.5 -25.5t221.5 -60.5l65 59h19v-276h-19q-58 131 -193.5 203.5t-323.5 72.5z" />
    <glyph glyph-name="C" unicode="&#xe7;" horiz-adv-x="1492" 
d="M852 1433q-164 0 -282 -93.5t-176 -253.5t-58 -369q0 -210 58.5 -370t176.5 -253.5t282 -93.5q187 0 322.5 72.5t193.5 203.5h19v-276h-19l-65 59q-99 -35 -221.5 -60.5t-230.5 -25.5q-139 1 -275 59.5t-241 157t-169.5 237.5t-64.5 290q0 150 64.5 289.5t169.5 237.5
t241 157t275 59q108 0 230.5 -25.5t221.5 -60.5l65 59h19v-276h-19q-58 131 -193.5 203.5t-323.5 72.5z" />
    <glyph glyph-name="C" unicode="&#xc7;" horiz-adv-x="1492" 
d="M852 1433q-164 0 -282 -93.5t-176 -253.5t-58 -369q0 -210 58.5 -370t176.5 -253.5t282 -93.5q187 0 322.5 72.5t193.5 203.5h19v-276h-19l-65 59q-99 -35 -221.5 -60.5t-230.5 -25.5q-139 1 -275 59.5t-241 157t-169.5 237.5t-64.5 290q0 150 64.5 289.5t169.5 237.5
t241 157t275 59q108 0 230.5 -25.5t221.5 -60.5l65 59h19v-276h-19q-58 131 -193.5 203.5t-323.5 72.5z" />
    <glyph glyph-name="C" unicode="c" horiz-adv-x="1492" 
d="M852 1433q-164 0 -282 -93.5t-176 -253.5t-58 -369q0 -210 58.5 -370t176.5 -253.5t282 -93.5q187 0 322.5 72.5t193.5 203.5h19v-276h-19l-65 59q-99 -35 -221.5 -60.5t-230.5 -25.5q-139 1 -275 59.5t-241 157t-169.5 237.5t-64.5 290q0 150 64.5 289.5t169.5 237.5
t241 157t275 59q108 0 230.5 -25.5t221.5 -60.5l65 59h19v-276h-19q-58 131 -193.5 203.5t-323.5 72.5z" />
    <glyph glyph-name="D" unicode="D" horiz-adv-x="1628" 
d="M722 1433q160 0 307 -55t256 -149.5t174 -228.5t65 -283q0 -151 -65.5 -285.5t-175.5 -228.5t-256.5 -148.5t-304.5 -54.5h-620v27h188v1379h-188v27h620zM725 27q141 0 250 50t177.5 141.5t103.5 217.5t35 283q0 155 -34.5 279.5t-103 216.5t-178.5 141.5t-255 49.5
h-241v-1379h246z" />
    <glyph glyph-name="D" unicode="d" horiz-adv-x="1628" 
d="M722 1433q160 0 307 -55t256 -149.5t174 -228.5t65 -283q0 -151 -65.5 -285.5t-175.5 -228.5t-256.5 -148.5t-304.5 -54.5h-620v27h188v1379h-188v27h620zM725 27q141 0 250 50t177.5 141.5t103.5 217.5t35 283q0 155 -34.5 279.5t-103 216.5t-178.5 141.5t-255 49.5
h-241v-1379h246z" />
    <glyph glyph-name="E" unicode="E" horiz-adv-x="1318" 
d="M1021 1406h-542v-638h497v-27h-497v-714h542l152 252h21v-279h-1092v27h188v1379h-188v27h1092v-278h-21z" />
    <glyph glyph-name="E" unicode="&#xeb;" horiz-adv-x="1318" 
d="M1021 1406h-542v-638h497v-27h-497v-714h542l152 252h21v-279h-1092v27h188v1379h-188v27h1092v-278h-21z" />
    <glyph glyph-name="E" unicode="&#xea;" horiz-adv-x="1318" 
d="M1021 1406h-542v-638h497v-27h-497v-714h542l152 252h21v-279h-1092v27h188v1379h-188v27h1092v-278h-21z" />
    <glyph glyph-name="E" unicode="&#xe9;" horiz-adv-x="1318" 
d="M1021 1406h-542v-638h497v-27h-497v-714h542l152 252h21v-279h-1092v27h188v1379h-188v27h1092v-278h-21z" />
    <glyph glyph-name="E" unicode="&#xe8;" horiz-adv-x="1318" 
d="M1021 1406h-542v-638h497v-27h-497v-714h542l152 252h21v-279h-1092v27h188v1379h-188v27h1092v-278h-21z" />
    <glyph glyph-name="E" unicode="&#xcb;" horiz-adv-x="1318" 
d="M1021 1406h-542v-638h497v-27h-497v-714h542l152 252h21v-279h-1092v27h188v1379h-188v27h1092v-278h-21z" />
    <glyph glyph-name="E" unicode="&#xca;" horiz-adv-x="1318" 
d="M1021 1406h-542v-638h497v-27h-497v-714h542l152 252h21v-279h-1092v27h188v1379h-188v27h1092v-278h-21z" />
    <glyph glyph-name="E" unicode="&#xc9;" horiz-adv-x="1318" 
d="M1021 1406h-542v-638h497v-27h-497v-714h542l152 252h21v-279h-1092v27h188v1379h-188v27h1092v-278h-21z" />
    <glyph glyph-name="E" unicode="&#xc8;" horiz-adv-x="1318" 
d="M1021 1406h-542v-638h497v-27h-497v-714h542l152 252h21v-279h-1092v27h188v1379h-188v27h1092v-278h-21z" />
    <glyph glyph-name="E" unicode="e" horiz-adv-x="1318" 
d="M1021 1406h-542v-638h497v-27h-497v-714h542l152 252h21v-279h-1092v27h188v1379h-188v27h1092v-278h-21z" />
    <glyph glyph-name="F" unicode="F" horiz-adv-x="1296" 
d="M102 1433h1092v-278h-21l-152 251h-542v-638h497v-27h-497v-714h168v-27h-545v27h188v1379h-188v27z" />
    <glyph glyph-name="F" unicode="f" horiz-adv-x="1296" 
d="M102 1433h1092v-278h-21l-152 251h-542v-638h497v-27h-497v-714h168v-27h-545v27h188v1379h-188v27z" />
    <glyph glyph-name="G" unicode="G" horiz-adv-x="1607" 
d="M922 696h583v-696h-21l-168 275q-19 -77 -60 -134.5t-87.5 -89.5t-106 -51.5t-106.5 -25t-97 -5.5q-147 0 -284.5 57t-242 154.5t-167.5 238t-63 298.5t64.5 298.5t170 238t244.5 154t286 56.5h36q104 0 234 -25t221 -61l63 55h19v-278h-20q-58 134 -193.5 209t-323.5 75
h-36q-173 0 -294.5 -93.5t-179 -254t-57.5 -374.5q0 -162 29 -291.5t88.5 -227.5t157 -151t227.5 -53q67 0 126.5 10t124.5 39.5t112.5 77.5t79.5 130.5t35 191.5v226h-394v27z" />
    <glyph glyph-name="G" unicode="g" horiz-adv-x="1607" 
d="M922 696h583v-696h-21l-168 275q-19 -77 -60 -134.5t-87.5 -89.5t-106 -51.5t-106.5 -25t-97 -5.5q-147 0 -284.5 57t-242 154.5t-167.5 238t-63 298.5t64.5 298.5t170 238t244.5 154t286 56.5h36q104 0 234 -25t221 -61l63 55h19v-278h-20q-58 134 -193.5 209t-323.5 75
h-36q-173 0 -294.5 -93.5t-179 -254t-57.5 -374.5q0 -162 29 -291.5t88.5 -227.5t157 -151t227.5 -53q67 0 126.5 10t124.5 39.5t112.5 77.5t79.5 130.5t35 191.5v226h-394v27z" />
    <glyph glyph-name="H" unicode="H" horiz-adv-x="1689" 
d="M1585 1406h-179v-1379h179v-27h-548v27h179v709h-745v-709h180v-27h-549v27h180v1379h-180v27h549v-27h-180v-644h745v644h-179v27h548v-27z" />
    <glyph glyph-name="H" unicode="h" horiz-adv-x="1689" 
d="M1585 1406h-179v-1379h179v-27h-548v27h179v709h-745v-709h180v-27h-549v27h180v1379h-180v27h549v-27h-180v-644h745v644h-179v27h548v-27z" />
    <glyph glyph-name="I" unicode="I" horiz-adv-x="753" 
d="M651 1406h-180v-1379h180v-27h-549v27h180v1379h-180v27h549v-27z" />
    <glyph glyph-name="I" unicode="&#xef;" horiz-adv-x="753" 
d="M651 1406h-180v-1379h180v-27h-549v27h180v1379h-180v27h549v-27z" />
    <glyph glyph-name="I" unicode="&#xee;" horiz-adv-x="753" 
d="M651 1406h-180v-1379h180v-27h-549v27h180v1379h-180v27h549v-27z" />
    <glyph glyph-name="I" unicode="&#xed;" horiz-adv-x="753" 
d="M651 1406h-180v-1379h180v-27h-549v27h180v1379h-180v27h549v-27z" />
    <glyph glyph-name="I" unicode="&#xec;" horiz-adv-x="753" 
d="M651 1406h-180v-1379h180v-27h-549v27h180v1379h-180v27h549v-27z" />
    <glyph glyph-name="I" unicode="&#xcf;" horiz-adv-x="753" 
d="M651 1406h-180v-1379h180v-27h-549v27h180v1379h-180v27h549v-27z" />
    <glyph glyph-name="I" unicode="&#xce;" horiz-adv-x="753" 
d="M651 1406h-180v-1379h180v-27h-549v27h180v1379h-180v27h549v-27z" />
    <glyph glyph-name="I" unicode="&#xcd;" horiz-adv-x="753" 
d="M651 1406h-180v-1379h180v-27h-549v27h180v1379h-180v27h549v-27z" />
    <glyph glyph-name="I" unicode="&#xcc;" horiz-adv-x="753" 
d="M651 1406h-180v-1379h180v-27h-549v27h180v1379h-180v27h549v-27z" />
    <glyph glyph-name="I" unicode="i" horiz-adv-x="753" 
d="M651 1406h-180v-1379h180v-27h-549v27h180v1379h-180v27h549v-27z" />
    <glyph glyph-name="J" unicode="J" horiz-adv-x="1056" 
d="M404 1433h549v-27h-182v-1084q0 -191 -137 -287q-109 -76 -254 -64q-135 11 -214 93q-64 65 -64 157v67h188v-67q0 -124 65 -188q53 -53 112 -28q75 31 103 167q14 65 14 150v1084h-180v27z" />
    <glyph glyph-name="J" unicode="j" horiz-adv-x="1056" 
d="M404 1433h549v-27h-182v-1084q0 -191 -137 -287q-109 -76 -254 -64q-135 11 -214 93q-64 65 -64 157v67h188v-67q0 -124 65 -188q53 -53 112 -28q75 31 103 167q14 65 14 150v1084h-180v27z" />
    <glyph glyph-name="K" unicode="K" horiz-adv-x="1525" 
d="M471 1406v-1379h180v-27h-549v27h180v1379h-180v27h549v-27h-180zM1268 27h154v-27h-494v27h145l-561 673v32l566 676h-152v27h429v-27h-242l-498 -594z" />
    <glyph glyph-name="K" unicode="k" horiz-adv-x="1525" 
d="M471 1406v-1379h180v-27h-549v27h180v1379h-180v27h549v-27h-180zM1268 27h154v-27h-494v27h145l-561 673v32l566 676h-152v27h429v-27h-242l-498 -594z" />
    <glyph glyph-name="L" unicode="L" horiz-adv-x="1335" 
d="M1211 279h21v-279h-1130v27h180v1379h-180v27h549v-27h-180v-1379h588z" />
    <glyph glyph-name="L" unicode="l" horiz-adv-x="1335" 
d="M1211 279h21v-279h-1130v27h180v1379h-180v27h549v-27h-180v-1379h588z" />
    <glyph glyph-name="M" unicode="M" horiz-adv-x="1796" 
d="M1692 1406h-179v-1379h179v-27h-548v27h180v1337l-478 -1232l-560 1242v-1347h153v-27h-337v27h157v1379h-157v27h350l468 -1037l404 1037h368v-27z" />
    <glyph glyph-name="M" unicode="m" horiz-adv-x="1796" 
d="M1692 1406h-179v-1379h179v-27h-548v27h180v1337l-478 -1232l-560 1242v-1347h153v-27h-337v27h157v1379h-157v27h350l468 -1037l404 1037h368v-27z" />
    <glyph glyph-name="N" unicode="N" horiz-adv-x="1507" 
d="M1067 1433h337v-27h-153v-1406h-27l-938 1389v-1362h153v-27h-337v27h157v1379h-157v27h383l739 -1097v1070h-157v27z" />
    <glyph glyph-name="N" unicode="&#xf1;" horiz-adv-x="1507" 
d="M1067 1433h337v-27h-153v-1406h-27l-938 1389v-1362h153v-27h-337v27h157v1379h-157v27h383l739 -1097v1070h-157v27z" />
    <glyph glyph-name="N" unicode="&#xd1;" horiz-adv-x="1507" 
d="M1067 1433h337v-27h-153v-1406h-27l-938 1389v-1362h153v-27h-337v27h157v1379h-157v27h383l739 -1097v1070h-157v27z" />
    <glyph glyph-name="N" unicode="n" horiz-adv-x="1507" 
d="M1067 1433h337v-27h-153v-1406h-27l-938 1389v-1362h153v-27h-337v27h157v1379h-157v27h383l739 -1097v1070h-157v27z" />
    <glyph glyph-name="O" unicode="O" horiz-adv-x="1734" 
d="M867 1464q117 0 230.5 -35.5t209 -103.5t168.5 -158t114.5 -207t41.5 -243q0 -158 -64 -298.5t-170 -238t-244.5 -154.5t-285.5 -57t-286 57t-244.5 154.5t-170 238t-64.5 298.5t64.5 298.5t170 238t244.5 154t286 56.5zM991 5q129 22 220.5 92t137.5 175.5t58.5 242.5
t-17.5 293q-57 323 -225 493.5t-423 126.5q-129 -22 -220.5 -92.5t-137.5 -176t-58.5 -242t17.5 -292.5q57 -323 225 -493.5t423 -126.5z" />
    <glyph glyph-name="O" unicode="&#xf8;" horiz-adv-x="1734" 
d="M867 1464q117 0 230.5 -35.5t209 -103.5t168.5 -158t114.5 -207t41.5 -243q0 -158 -64 -298.5t-170 -238t-244.5 -154.5t-285.5 -57t-286 57t-244.5 154.5t-170 238t-64.5 298.5t64.5 298.5t170 238t244.5 154t286 56.5zM991 5q129 22 220.5 92t137.5 175.5t58.5 242.5
t-17.5 293q-57 323 -225 493.5t-423 126.5q-129 -22 -220.5 -92.5t-137.5 -176t-58.5 -242t17.5 -292.5q57 -323 225 -493.5t423 -126.5z" />
    <glyph glyph-name="O" unicode="&#xf6;" horiz-adv-x="1734" 
d="M867 1464q117 0 230.5 -35.5t209 -103.5t168.5 -158t114.5 -207t41.5 -243q0 -158 -64 -298.5t-170 -238t-244.5 -154.5t-285.5 -57t-286 57t-244.5 154.5t-170 238t-64.5 298.5t64.5 298.5t170 238t244.5 154t286 56.5zM991 5q129 22 220.5 92t137.5 175.5t58.5 242.5
t-17.5 293q-57 323 -225 493.5t-423 126.5q-129 -22 -220.5 -92.5t-137.5 -176t-58.5 -242t17.5 -292.5q57 -323 225 -493.5t423 -126.5z" />
    <glyph glyph-name="O" unicode="&#xf5;" horiz-adv-x="1734" 
d="M867 1464q117 0 230.5 -35.5t209 -103.5t168.5 -158t114.5 -207t41.5 -243q0 -158 -64 -298.5t-170 -238t-244.5 -154.5t-285.5 -57t-286 57t-244.5 154.5t-170 238t-64.5 298.5t64.5 298.5t170 238t244.5 154t286 56.5zM991 5q129 22 220.5 92t137.5 175.5t58.5 242.5
t-17.5 293q-57 323 -225 493.5t-423 126.5q-129 -22 -220.5 -92.5t-137.5 -176t-58.5 -242t17.5 -292.5q57 -323 225 -493.5t423 -126.5z" />
    <glyph glyph-name="O" unicode="&#xf4;" horiz-adv-x="1734" 
d="M867 1464q117 0 230.5 -35.5t209 -103.5t168.5 -158t114.5 -207t41.5 -243q0 -158 -64 -298.5t-170 -238t-244.5 -154.5t-285.5 -57t-286 57t-244.5 154.5t-170 238t-64.5 298.5t64.5 298.5t170 238t244.5 154t286 56.5zM991 5q129 22 220.5 92t137.5 175.5t58.5 242.5
t-17.5 293q-57 323 -225 493.5t-423 126.5q-129 -22 -220.5 -92.5t-137.5 -176t-58.5 -242t17.5 -292.5q57 -323 225 -493.5t423 -126.5z" />
    <glyph glyph-name="O" unicode="&#xf3;" horiz-adv-x="1734" 
d="M867 1464q117 0 230.5 -35.5t209 -103.5t168.5 -158t114.5 -207t41.5 -243q0 -158 -64 -298.5t-170 -238t-244.5 -154.5t-285.5 -57t-286 57t-244.5 154.5t-170 238t-64.5 298.5t64.5 298.5t170 238t244.5 154t286 56.5zM991 5q129 22 220.5 92t137.5 175.5t58.5 242.5
t-17.5 293q-57 323 -225 493.5t-423 126.5q-129 -22 -220.5 -92.5t-137.5 -176t-58.5 -242t17.5 -292.5q57 -323 225 -493.5t423 -126.5z" />
    <glyph glyph-name="O" unicode="&#xf2;" horiz-adv-x="1734" 
d="M867 1464q117 0 230.5 -35.5t209 -103.5t168.5 -158t114.5 -207t41.5 -243q0 -158 -64 -298.5t-170 -238t-244.5 -154.5t-285.5 -57t-286 57t-244.5 154.5t-170 238t-64.5 298.5t64.5 298.5t170 238t244.5 154t286 56.5zM991 5q129 22 220.5 92t137.5 175.5t58.5 242.5
t-17.5 293q-57 323 -225 493.5t-423 126.5q-129 -22 -220.5 -92.5t-137.5 -176t-58.5 -242t17.5 -292.5q57 -323 225 -493.5t423 -126.5z" />
    <glyph glyph-name="O" unicode="&#xd8;" horiz-adv-x="1734" 
d="M867 1464q117 0 230.5 -35.5t209 -103.5t168.5 -158t114.5 -207t41.5 -243q0 -158 -64 -298.5t-170 -238t-244.5 -154.5t-285.5 -57t-286 57t-244.5 154.5t-170 238t-64.5 298.5t64.5 298.5t170 238t244.5 154t286 56.5zM991 5q129 22 220.5 92t137.5 175.5t58.5 242.5
t-17.5 293q-57 323 -225 493.5t-423 126.5q-129 -22 -220.5 -92.5t-137.5 -176t-58.5 -242t17.5 -292.5q57 -323 225 -493.5t423 -126.5z" />
    <glyph glyph-name="O" unicode="&#xd6;" horiz-adv-x="1734" 
d="M867 1464q117 0 230.5 -35.5t209 -103.5t168.5 -158t114.5 -207t41.5 -243q0 -158 -64 -298.5t-170 -238t-244.5 -154.5t-285.5 -57t-286 57t-244.5 154.5t-170 238t-64.5 298.5t64.5 298.5t170 238t244.5 154t286 56.5zM991 5q129 22 220.5 92t137.5 175.5t58.5 242.5
t-17.5 293q-57 323 -225 493.5t-423 126.5q-129 -22 -220.5 -92.5t-137.5 -176t-58.5 -242t17.5 -292.5q57 -323 225 -493.5t423 -126.5z" />
    <glyph glyph-name="O" unicode="&#xd5;" horiz-adv-x="1734" 
d="M867 1464q117 0 230.5 -35.5t209 -103.5t168.5 -158t114.5 -207t41.5 -243q0 -158 -64 -298.5t-170 -238t-244.5 -154.5t-285.5 -57t-286 57t-244.5 154.5t-170 238t-64.5 298.5t64.5 298.5t170 238t244.5 154t286 56.5zM991 5q129 22 220.5 92t137.5 175.5t58.5 242.5
t-17.5 293q-57 323 -225 493.5t-423 126.5q-129 -22 -220.5 -92.5t-137.5 -176t-58.5 -242t17.5 -292.5q57 -323 225 -493.5t423 -126.5z" />
    <glyph glyph-name="O" unicode="&#xd4;" horiz-adv-x="1734" 
d="M867 1464q117 0 230.5 -35.5t209 -103.5t168.5 -158t114.5 -207t41.5 -243q0 -158 -64 -298.5t-170 -238t-244.5 -154.5t-285.5 -57t-286 57t-244.5 154.5t-170 238t-64.5 298.5t64.5 298.5t170 238t244.5 154t286 56.5zM991 5q129 22 220.5 92t137.5 175.5t58.5 242.5
t-17.5 293q-57 323 -225 493.5t-423 126.5q-129 -22 -220.5 -92.5t-137.5 -176t-58.5 -242t17.5 -292.5q57 -323 225 -493.5t423 -126.5z" />
    <glyph glyph-name="O" unicode="&#xd3;" horiz-adv-x="1734" 
d="M867 1464q117 0 230.5 -35.5t209 -103.5t168.5 -158t114.5 -207t41.5 -243q0 -158 -64 -298.5t-170 -238t-244.5 -154.5t-285.5 -57t-286 57t-244.5 154.5t-170 238t-64.5 298.5t64.5 298.5t170 238t244.5 154t286 56.5zM991 5q129 22 220.5 92t137.5 175.5t58.5 242.5
t-17.5 293q-57 323 -225 493.5t-423 126.5q-129 -22 -220.5 -92.5t-137.5 -176t-58.5 -242t17.5 -292.5q57 -323 225 -493.5t423 -126.5z" />
    <glyph glyph-name="O" unicode="&#xd2;" horiz-adv-x="1734" 
d="M867 1464q117 0 230.5 -35.5t209 -103.5t168.5 -158t114.5 -207t41.5 -243q0 -158 -64 -298.5t-170 -238t-244.5 -154.5t-285.5 -57t-286 57t-244.5 154.5t-170 238t-64.5 298.5t64.5 298.5t170 238t244.5 154t286 56.5zM991 5q129 22 220.5 92t137.5 175.5t58.5 242.5
t-17.5 293q-57 323 -225 493.5t-423 126.5q-129 -22 -220.5 -92.5t-137.5 -176t-58.5 -242t17.5 -292.5q57 -323 225 -493.5t423 -126.5z" />
    <glyph glyph-name="O" unicode="o" horiz-adv-x="1734" 
d="M867 1464q117 0 230.5 -35.5t209 -103.5t168.5 -158t114.5 -207t41.5 -243q0 -158 -64 -298.5t-170 -238t-244.5 -154.5t-285.5 -57t-286 57t-244.5 154.5t-170 238t-64.5 298.5t64.5 298.5t170 238t244.5 154t286 56.5zM991 5q129 22 220.5 92t137.5 175.5t58.5 242.5
t-17.5 293q-57 323 -225 493.5t-423 126.5q-129 -22 -220.5 -92.5t-137.5 -176t-58.5 -242t17.5 -292.5q57 -323 225 -493.5t423 -126.5z" />
    <glyph glyph-name="P" unicode="P" horiz-adv-x="1464" 
d="M798 1433q166 0 289.5 -37t199 -121.5t75.5 -210.5q0 -95 -42.5 -167t-119.5 -115t-178 -64.5t-224 -21.5h-327v-669h218v-27h-587v27h180v1379h-180v27h696zM762 722q94 0 158.5 15t114 52.5t73 105.5t23.5 169t-23.5 169t-73 105.5t-114 52.5t-158.5 15h-291v-684h291z
" />
    <glyph glyph-name="P" unicode="p" horiz-adv-x="1464" 
d="M798 1433q166 0 289.5 -37t199 -121.5t75.5 -210.5q0 -95 -42.5 -167t-119.5 -115t-178 -64.5t-224 -21.5h-327v-669h218v-27h-587v27h180v1379h-180v27h696zM762 722q94 0 158.5 15t114 52.5t73 105.5t23.5 169t-23.5 169t-73 105.5t-114 52.5t-158.5 15h-291v-684h291z
" />
    <glyph glyph-name="Q" unicode="Q" horiz-adv-x="1734" 
d="M1631 717q0 -148 -57 -282t-152.5 -230t-221.5 -157.5t-263 -74.5l408 -254l-180 -148l-278 399v27q56 0 104 8q129 22 220.5 92t137.5 175.5t58.5 242.5t-17.5 293q-57 323 -225 493.5t-423 126.5q-129 -22 -220.5 -92.5t-137.5 -176t-58.5 -242t17.5 -292.5
q48 -272 176.5 -438.5t322.5 -187.5l-24 -28q-140 9 -270 69.5t-228.5 157t-158 232.5t-59.5 287q0 158 64.5 298.5t170 238t244.5 154t286 56.5q117 0 230.5 -35.5t209 -103.5t168.5 -158t114.5 -207t41.5 -243z" />
    <glyph glyph-name="Q" unicode="q" horiz-adv-x="1734" 
d="M1631 717q0 -148 -57 -282t-152.5 -230t-221.5 -157.5t-263 -74.5l408 -254l-180 -148l-278 399v27q56 0 104 8q129 22 220.5 92t137.5 175.5t58.5 242.5t-17.5 293q-57 323 -225 493.5t-423 126.5q-129 -22 -220.5 -92.5t-137.5 -176t-58.5 -242t17.5 -292.5
q48 -272 176.5 -438.5t322.5 -187.5l-24 -28q-140 9 -270 69.5t-228.5 157t-158 232.5t-59.5 287q0 158 64.5 298.5t170 238t244.5 154t286 56.5q117 0 230.5 -35.5t209 -103.5t168.5 -158t114.5 -207t41.5 -243z" />
    <glyph glyph-name="R" unicode="R" horiz-adv-x="1681" 
d="M1190 0l-541 734h-178v-707h218v-27h-587v27h180v1379h-180v27h639q165 0 289 -36.5t199 -116.5t75 -197q0 -101 -57.5 -175t-153 -114t-226.5 -54l535 -713h176v-27h-388zM704 761q93 0 158 14.5t114.5 50t73 99.5t23.5 158q0 96 -23.5 160t-73 99.5t-114 49.5
t-158.5 14h-233v-645h233z" />
    <glyph glyph-name="R" unicode="r" horiz-adv-x="1681" 
d="M1190 0l-541 734h-178v-707h218v-27h-587v27h180v1379h-180v27h639q165 0 289 -36.5t199 -116.5t75 -197q0 -101 -57.5 -175t-153 -114t-226.5 -54l535 -713h176v-27h-388zM704 761q93 0 158 14.5t114.5 50t73 99.5t23.5 158q0 96 -23.5 160t-73 99.5t-114 49.5
t-158.5 14h-233v-645h233z" />
    <glyph glyph-name="S" unicode="S" horiz-adv-x="1255" 
d="M842 776q69 -22 120.5 -49.5t96.5 -68t69 -99t24 -131.5q0 -81 -12.5 -145t-46.5 -125t-90 -102t-148 -65.5t-216 -24.5q-212 0 -474 137l-43 -103h-20v278h20q58 -126 198 -201.5t319 -75.5q219 0 326 77t107 212q0 46 -18.5 85.5t-44.5 66t-69 51.5t-76 39t-81 32
l-356 128q-63 23 -113 53.5t-91 74t-62.5 97t-27 121t14.5 147.5q16 67 65 122.5t112.5 87.5t128 49.5t118.5 17.5q111 0 234 -33t212 -80l57 84h19v-278h-19q-57 125 -195.5 199.5t-305.5 75.5q-94 1 -184 -35.5t-149 -103.5t-59 -146q0 -44 15 -78.5t36 -56.5t56 -41
t63 -29.5t70 -24.5q15 -5 22 -7z" />
    <glyph glyph-name="S" unicode="s" horiz-adv-x="1255" 
d="M842 776q69 -22 120.5 -49.5t96.5 -68t69 -99t24 -131.5q0 -81 -12.5 -145t-46.5 -125t-90 -102t-148 -65.5t-216 -24.5q-212 0 -474 137l-43 -103h-20v278h20q58 -126 198 -201.5t319 -75.5q219 0 326 77t107 212q0 46 -18.5 85.5t-44.5 66t-69 51.5t-76 39t-81 32
l-356 128q-63 23 -113 53.5t-91 74t-62.5 97t-27 121t14.5 147.5q16 67 65 122.5t112.5 87.5t128 49.5t118.5 17.5q111 0 234 -33t212 -80l57 84h19v-278h-19q-57 125 -195.5 199.5t-305.5 75.5q-94 1 -184 -35.5t-149 -103.5t-59 -146q0 -44 15 -78.5t36 -56.5t56 -41
t63 -29.5t70 -24.5q15 -5 22 -7z" />
    <glyph glyph-name="T" unicode="T" horiz-adv-x="1441" 
d="M102 1433h1237v-278h-21l-152 251h-351v-1379h180v-27h-549v27h180v1379h-351l-152 -251h-21v278z" />
    <glyph glyph-name="T" unicode="t" horiz-adv-x="1441" 
d="M102 1433h1237v-278h-21l-152 251h-351v-1379h180v-27h-549v27h180v1379h-351l-152 -251h-21v278z" />
    <glyph glyph-name="U" unicode="U" horiz-adv-x="1611" 
d="M1173 1435h336v-27h-149v-999q0 -198 -132 -320.5t-331 -122.5q-93 0 -175 12t-165 43.5t-142 81t-96 131t-37 186.5v986h-180v27h549v-27h-180l4 -986q1 -220 104.5 -324t321.5 -104q51 0 106 13t112.5 44.5t102.5 78t74 119.5t29 162v999h-152v27z" />
    <glyph glyph-name="U" unicode="&#xfc;" horiz-adv-x="1611" 
d="M1173 1435h336v-27h-149v-999q0 -198 -132 -320.5t-331 -122.5q-93 0 -175 12t-165 43.5t-142 81t-96 131t-37 186.5v986h-180v27h549v-27h-180l4 -986q1 -220 104.5 -324t321.5 -104q51 0 106 13t112.5 44.5t102.5 78t74 119.5t29 162v999h-152v27z" />
    <glyph glyph-name="U" unicode="&#xfb;" horiz-adv-x="1611" 
d="M1173 1435h336v-27h-149v-999q0 -198 -132 -320.5t-331 -122.5q-93 0 -175 12t-165 43.5t-142 81t-96 131t-37 186.5v986h-180v27h549v-27h-180l4 -986q1 -220 104.5 -324t321.5 -104q51 0 106 13t112.5 44.5t102.5 78t74 119.5t29 162v999h-152v27z" />
    <glyph glyph-name="U" unicode="&#xfa;" horiz-adv-x="1611" 
d="M1173 1435h336v-27h-149v-999q0 -198 -132 -320.5t-331 -122.5q-93 0 -175 12t-165 43.5t-142 81t-96 131t-37 186.5v986h-180v27h549v-27h-180l4 -986q1 -220 104.5 -324t321.5 -104q51 0 106 13t112.5 44.5t102.5 78t74 119.5t29 162v999h-152v27z" />
    <glyph glyph-name="U" unicode="&#xf9;" horiz-adv-x="1611" 
d="M1173 1435h336v-27h-149v-999q0 -198 -132 -320.5t-331 -122.5q-93 0 -175 12t-165 43.5t-142 81t-96 131t-37 186.5v986h-180v27h549v-27h-180l4 -986q1 -220 104.5 -324t321.5 -104q51 0 106 13t112.5 44.5t102.5 78t74 119.5t29 162v999h-152v27z" />
    <glyph glyph-name="U" unicode="&#xdc;" horiz-adv-x="1611" 
d="M1173 1435h336v-27h-149v-999q0 -198 -132 -320.5t-331 -122.5q-93 0 -175 12t-165 43.5t-142 81t-96 131t-37 186.5v986h-180v27h549v-27h-180l4 -986q1 -220 104.5 -324t321.5 -104q51 0 106 13t112.5 44.5t102.5 78t74 119.5t29 162v999h-152v27z" />
    <glyph glyph-name="U" unicode="&#xdb;" horiz-adv-x="1611" 
d="M1173 1435h336v-27h-149v-999q0 -198 -132 -320.5t-331 -122.5q-93 0 -175 12t-165 43.5t-142 81t-96 131t-37 186.5v986h-180v27h549v-27h-180l4 -986q1 -220 104.5 -324t321.5 -104q51 0 106 13t112.5 44.5t102.5 78t74 119.5t29 162v999h-152v27z" />
    <glyph glyph-name="U" unicode="&#xda;" horiz-adv-x="1611" 
d="M1173 1435h336v-27h-149v-999q0 -198 -132 -320.5t-331 -122.5q-93 0 -175 12t-165 43.5t-142 81t-96 131t-37 186.5v986h-180v27h549v-27h-180l4 -986q1 -220 104.5 -324t321.5 -104q51 0 106 13t112.5 44.5t102.5 78t74 119.5t29 162v999h-152v27z" />
    <glyph glyph-name="U" unicode="&#xd9;" horiz-adv-x="1611" 
d="M1173 1435h336v-27h-149v-999q0 -198 -132 -320.5t-331 -122.5q-93 0 -175 12t-165 43.5t-142 81t-96 131t-37 186.5v986h-180v27h549v-27h-180l4 -986q1 -220 104.5 -324t321.5 -104q51 0 106 13t112.5 44.5t102.5 78t74 119.5t29 162v999h-152v27z" />
    <glyph glyph-name="U" unicode="u" horiz-adv-x="1611" 
d="M1173 1435h336v-27h-149v-999q0 -198 -132 -320.5t-331 -122.5q-93 0 -175 12t-165 43.5t-142 81t-96 131t-37 186.5v986h-180v27h549v-27h-180l4 -986q1 -220 104.5 -324t321.5 -104q51 0 106 13t112.5 44.5t102.5 78t74 119.5t29 162v999h-152v27z" />
    <glyph glyph-name="V" unicode="V" horiz-adv-x="1624" 
d="M1177 1435h343v-27h-148l-534 -1408l-613 1408h-123v27h424v-27h-114l486 -1152l440 1152h-161v27z" />
    <glyph glyph-name="V" unicode="v" horiz-adv-x="1624" 
d="M1177 1435h343v-27h-148l-534 -1408l-613 1408h-123v27h424v-27h-114l486 -1152l440 1152h-161v27z" />
    <glyph glyph-name="W" unicode="W" horiz-adv-x="2174" 
d="M1736 1435h337v-27h-149l-448 -1408l-403 1078l-428 -1078l-418 1408h-125v27h423v-27h-117l306 -1102l436 1081l395 -1081l344 1102h-153v27z" />
    <glyph glyph-name="W" unicode="w" horiz-adv-x="2174" 
d="M1736 1435h337v-27h-149l-448 -1408l-403 1078l-428 -1078l-418 1408h-125v27h423v-27h-117l306 -1102l436 1081l395 -1081l344 1102h-153v27z" />
    <glyph glyph-name="X" unicode="X" horiz-adv-x="1732" 
d="M1517 27h112v-27h-445v27h103l-468 606l-506 -606h145v-27h-356v27h176l526 627l-583 752h-119v27h461v-27h-113l472 -611l512 611h-153v27h337v-27h-149l-530 -632z" />
    <glyph glyph-name="X" unicode="x" horiz-adv-x="1732" 
d="M1517 27h112v-27h-445v27h103l-468 606l-506 -606h145v-27h-356v27h176l526 627l-583 752h-119v27h461v-27h-113l472 -611l512 611h-153v27h337v-27h-149l-530 -632z" />
    <glyph glyph-name="Y" unicode="Y" horiz-adv-x="1607" 
d="M1169 1433h336v-27h-149l-462 -695l-4 -684h179v-27h-548v27h180v628l-476 751h-123v27h438v-27h-117l434 -705l465 705h-153v27z" />
    <glyph glyph-name="Y" unicode="&#x178;" horiz-adv-x="1607" 
d="M1169 1433h336v-27h-149l-462 -695l-4 -684h179v-27h-548v27h180v628l-476 751h-123v27h438v-27h-117l434 -705l465 705h-153v27z" />
    <glyph glyph-name="Y" unicode="&#xff;" horiz-adv-x="1607" 
d="M1169 1433h336v-27h-149l-462 -695l-4 -684h179v-27h-548v27h180v628l-476 751h-123v27h438v-27h-117l434 -705l465 705h-153v27z" />
    <glyph glyph-name="Y" unicode="&#xfd;" horiz-adv-x="1607" 
d="M1169 1433h336v-27h-149l-462 -695l-4 -684h179v-27h-548v27h180v628l-476 751h-123v27h438v-27h-117l434 -705l465 705h-153v27z" />
    <glyph glyph-name="Y" unicode="&#xdd;" horiz-adv-x="1607" 
d="M1169 1433h336v-27h-149l-462 -695l-4 -684h179v-27h-548v27h180v628l-476 751h-123v27h438v-27h-117l434 -705l465 705h-153v27z" />
    <glyph glyph-name="Y" unicode="y" horiz-adv-x="1607" 
d="M1169 1433h336v-27h-149l-462 -695l-4 -684h179v-27h-548v27h180v628l-476 751h-123v27h438v-27h-117l434 -705l465 705h-153v27z" />
    <glyph glyph-name="Z" unicode="Z" horiz-adv-x="1277" 
d="M1001 27l152 252h21v-279h-1072l866 1406h-693l-152 -251h-21v278h1072l-865 -1406h692z" />
    <glyph glyph-name="Z" unicode="z" horiz-adv-x="1277" 
d="M1001 27l152 252h21v-279h-1072l866 1406h-693l-152 -251h-21v278h1072l-865 -1406h692z" />
    <glyph glyph-name="nonbreakingspace" unicode="&#xa0;" horiz-adv-x="538" 
 />
    <glyph glyph-name="softhyphen" unicode="&#xad;" 
 />
    </font>
</defs>
</svg>
