<?xml version="1.0" standalone="no"?>
<!DOCTYPE svg PUBLIC "-//W3C//DTD SVG 1.1//EN" "http://www.w3.org/Graphics/SVG/1.1/DTD/svg11.dtd" >
<svg xmlns="http://www.w3.org/2000/svg" xmlns:xlink="http://www.w3.org/1999/xlink" version="1.1">
<metadata>
Created by FontForge 20201107 at Fri Feb 23 16:32:32 2024
 By 
</metadata>
<defs>
<font id="KindelSerifRegular" horiz-adv-x="1277" >
  <font-face 
    font-family="KindelSerif"
    font-weight="400"
    font-stretch="normal"
    units-per-em="2048"
    panose-1="0 0 0 0 0 0 0 0 0 0"
    ascent="1638"
    descent="-410"
    x-height="1434"
    cap-height="1434"
    bbox="0 -364 1619 1434"
    underline-thickness="0"
    underline-position="0"
    unicode-range="U+000A-00AD"
  />
<missing-glyph horiz-adv-x="1079" 
d="M102 1434h875v-1434h-875v1434zM160 1393l379 -633l381 633h-760zM514 717l-369 614v-1231zM541 674l-379 -631h758zM565 717l371 -621v1239z" />
    <glyph glyph-name=".notdef" horiz-adv-x="1079" 
d="M102 1434h875v-1434h-875v1434zM160 1393l379 -633l381 633h-760zM514 717l-369 614v-1231zM541 674l-379 -631h758zM565 717l371 -621v1239z" />
    <glyph glyph-name=".null" horiz-adv-x="0" 
 />
    <glyph glyph-name=".null" horiz-adv-x="0" 
 />
    <glyph glyph-name="nonmarkingreturn" horiz-adv-x="682" 
 />
    <glyph glyph-name="controlLF" unicode="&#xa;" horiz-adv-x="0" 
 />
    <glyph glyph-name="controlCR" unicode="&#xd;" horiz-adv-x="0" 
 />
    <glyph glyph-name="space" unicode=" " horiz-adv-x="638" 
 />
    <glyph glyph-name="zero" unicode="0" horiz-adv-x="1331" 
d="M665 -8q-120 0 -229.5 57.5t-188.5 154t-126 230t-47 279.5t47 279.5t126 230t188.5 154t229.5 57.5q160 0 296.5 -96.5t216 -263t79.5 -361.5t-79.5 -361.5t-216 -263t-296.5 -96.5zM1017 1129l-695 -849q61 -126 151 -199t192 -73q118 0 218.5 94.5t159 257t58.5 353.5
q0 231 -84 416zM314 297l695 848q-61 126 -151.5 199t-192.5 73q-118 0 -218 -94.5t-158.5 -256.5t-58.5 -353q0 -231 84 -416z" />
    <glyph glyph-name="one" unicode="1" horiz-adv-x="567" 
d="M205 -8h-131v16h49q34 0 58 24t24 58v1158l-53 -59l-12 11l207 231l2 2h12v-1344q1 -33 24.5 -57t56.5 -24h50v-16h-131h-156z" />
    <glyph glyph-name="two" unicode="2" horiz-adv-x="1015" 
d="M254 417q-75 -58 -118.5 -127t-45.5 -131v-151h623q88 0 150.5 62.5t62.5 150.5v110h16v-339h-868v159v8v176q2 138 128 238l489 380q77 60 120.5 129.5t43.5 132.5q0 67 -51 107v0q-122 95 -296 95t-296 -95q-117 -92 -122 -220h-16v331h16v-7q0 -36 25.5 -62t62.5 -26
q23 0 42 10q127 89 299.5 85.5t294.5 -98.5v-1l7 -4l-1 -1q122 -100 122 -236q0 -141 -128 -241z" />
    <glyph glyph-name="three" unicode="3" horiz-adv-x="1017" 
d="M90 0v-8h-16v373h16v-9q0 -144 102 -246t246 -102h141q86 0 147.5 102t61.5 246t-61.5 246t-147.5 102q-34 0 -57.5 -23.5t-23.5 -57.5v-50h-17v279h17v-50q0 -33 23 -56t55 -25h3q86 0 147.5 102t61.5 246t-61.5 246t-147.5 102h-141q-144 0 -246 -102t-102 -246v-8h-16
v372h16v-7q0 -34 24 -58.5t59 -24.5q18 0 33 6q97 81 224 84v1h149q151 0 258 -107t107 -258q0 -130 -82 -229.5t-206 -126.5q124 -26 206 -126.5t82 -230.5q0 -151 -107 -257.5t-258 -106.5h-149q-127 3 -224 84q-18 7 -33 7q-35 0 -59 -24.5t-24 -58.5z" />
    <glyph glyph-name="four" unicode="4" horiz-adv-x="1157" 
d="M796 467h-722l722 806l142 158l2 3h12v-1344q0 -34 23.5 -58t57.5 -24h50v-16h-131h-156h-131v16h49q34 0 58 23.5t24 57.5v378zM110 483h686v765z" />
    <glyph glyph-name="five" unicode="5" horiz-adv-x="1148" 
d="M205 1336q0 34 -24 57.5t-58 23.5h-49v17h131h870v-340h-17v110q0 88 -62 150.5t-150 62.5h-485v-696h349h2q150 -1 256.5 -107.5t106.5 -257.5q0 -150 -106.5 -256.5t-256.5 -107.5h-2h-149q-127 3 -224 84q-17 7 -33 7q-34 0 -58.5 -24.5t-24.5 -58.5v-8h-16v373h16v-9
q0 -144 102 -246t246 -102h8h125h8h2q86 1 146.5 103t60.5 245t-60.5 245t-146.5 103h-2h-8v1h-497v631z" />
    <glyph glyph-name="six" unicode="6" horiz-adv-x="1017" 
d="M438 -8q-148 0 -254.5 104t-109.5 252v721q0 151 106.5 258t257.5 107h149v-1q128 -3 225 -84q15 -6 32 -6q34 0 58.5 24.5t24.5 58.5v7h17v-372h-17v8q0 144 -102 246t-246 102h-141q-86 0 -147 -102t-61 -246v-414q95 66 208 66h141q151 0 258 -107t107 -258
t-107 -257.5t-258 -106.5h-141zM438 8h141q86 0 147.5 102t61.5 246t-61.5 246t-147.5 102h-141q-86 0 -147 -102t-61 -246t61 -246t147 -102z" />
    <glyph glyph-name="seven" unicode="7" 
d="M132 -8h-58v16h49q35 0 72 25t54 60l648 1324h-464q-88 -1 -150 -63t-62 -150v-110h-16v340h229h471h154h145v-17h-50q-35 0 -72 -25t-54 -60l-608 -1246q-17 -37 -4 -59q13 -19 42 -19h50v-16h-139h-90h-79h-68z" />
    <glyph glyph-name="eight" unicode="8" horiz-adv-x="1017" 
d="M74 356q0 130 82 230.5t206 126.5q-124 27 -206 126.5t-82 229.5q0 151 106.5 258t257.5 107h141q151 0 258 -107t107 -258q0 -130 -82 -229.5t-206 -126.5q124 -26 206 -126.5t82 -230.5q0 -151 -107 -257.5t-258 -106.5h-141q-151 0 -257.5 106.5t-106.5 257.5zM438 8
h141q86 0 147.5 102t61.5 246t-61.5 246t-147.5 102h-141q-86 0 -147 -102t-61 -246t61 -246t147 -102zM579 1417h-141q-86 0 -147 -102t-61 -246t61 -246t147 -102h141q86 0 147.5 102t61.5 246t-61.5 246t-147.5 102z" />
    <glyph glyph-name="nine" unicode="9" horiz-adv-x="1017" 
d="M90 0v-7h-16v372h16v-8q0 -144 102 -246t246 -102h141q86 0 147.5 102t61.5 246v414q-95 -66 -209 -66h-141q-151 0 -257.5 106.5t-106.5 257.5t106.5 258t257.5 107h141q148 0 254.5 -104t109.5 -252h1v-721q0 -151 -107 -258t-258 -107h-149q-128 3 -225 84
q-17 7 -32 7q-35 0 -59 -24.5t-24 -58.5zM579 1417h-141q-86 0 -147 -102t-61 -246t61 -246t147 -102h141q86 0 147.5 102t61.5 246t-61.5 246t-147.5 102z" />
    <glyph glyph-name="A" unicode="A" 
d="M132 -8h-58v16h49q34 0 66 24.5t43 59.5l326 1090l47 159l26 87v0l2 6h12l401 -1342q11 -35 42.5 -59.5t65.5 -24.5h50v-16h-128h-67q-40 0 -76.5 27.5t-48.5 67.5l-113 380h-410l-113 -380q-11 -33 7 -57q16 -22 48 -22h49v-16h-220zM366 483h400l-200 670z" />
    <glyph glyph-name="A" unicode="&#xc5;" 
d="M132 -8h-58v16h49q34 0 66 24.5t43 59.5l326 1090l47 159l26 87v0l2 6h12l401 -1342q11 -35 42.5 -59.5t65.5 -24.5h50v-16h-128h-67q-40 0 -76.5 27.5t-48.5 67.5l-113 380h-410l-113 -380q-11 -33 7 -57q16 -22 48 -22h49v-16h-220zM366 483h400l-200 670z" />
    <glyph glyph-name="A" unicode="&#xc4;" 
d="M132 -8h-58v16h49q34 0 66 24.5t43 59.5l326 1090l47 159l26 87v0l2 6h12l401 -1342q11 -35 42.5 -59.5t65.5 -24.5h50v-16h-128h-67q-40 0 -76.5 27.5t-48.5 67.5l-113 380h-410l-113 -380q-11 -33 7 -57q16 -22 48 -22h49v-16h-220zM366 483h400l-200 670z" />
    <glyph glyph-name="A" unicode="&#xc3;" 
d="M132 -8h-58v16h49q34 0 66 24.5t43 59.5l326 1090l47 159l26 87v0l2 6h12l401 -1342q11 -35 42.5 -59.5t65.5 -24.5h50v-16h-128h-67q-40 0 -76.5 27.5t-48.5 67.5l-113 380h-410l-113 -380q-11 -33 7 -57q16 -22 48 -22h49v-16h-220zM366 483h400l-200 670z" />
    <glyph glyph-name="A" unicode="&#xc2;" 
d="M132 -8h-58v16h49q34 0 66 24.5t43 59.5l326 1090l47 159l26 87v0l2 6h12l401 -1342q11 -35 42.5 -59.5t65.5 -24.5h50v-16h-128h-67q-40 0 -76.5 27.5t-48.5 67.5l-113 380h-410l-113 -380q-11 -33 7 -57q16 -22 48 -22h49v-16h-220zM366 483h400l-200 670z" />
    <glyph glyph-name="A" unicode="&#xc1;" 
d="M132 -8h-58v16h49q34 0 66 24.5t43 59.5l326 1090l47 159l26 87v0l2 6h12l401 -1342q11 -35 42.5 -59.5t65.5 -24.5h50v-16h-128h-67q-40 0 -76.5 27.5t-48.5 67.5l-113 380h-410l-113 -380q-11 -33 7 -57q16 -22 48 -22h49v-16h-220zM366 483h400l-200 670z" />
    <glyph glyph-name="A" unicode="&#xc0;" 
d="M132 -8h-58v16h49q34 0 66 24.5t43 59.5l326 1090l47 159l26 87v0l2 6h12l401 -1342q11 -35 42.5 -59.5t65.5 -24.5h50v-16h-128h-67q-40 0 -76.5 27.5t-48.5 67.5l-113 380h-410l-113 -380q-11 -33 7 -57q16 -22 48 -22h49v-16h-220zM366 483h400l-200 670z" />
    <glyph glyph-name="B" unicode="B" horiz-adv-x="1148" 
d="M205 -8h-131v16h49q34 0 58 23.5t24 57.5v1247q0 34 -24 57.5t-58 23.5h-49v17h147h132h267h8q151 0 258 -107t107 -258q0 -122 -72.5 -218.5t-186.5 -130.5q143 -9 242 -114.5t99 -249.5q0 -151 -107 -257.5t-258 -106.5h-349h-156zM361 705v-697h341h8q86 0 147.5 102
t61.5 246t-61.5 246t-147.5 102h-8zM361 1417v-696h259h8q86 0 147.5 102t61.5 246t-61.5 246t-147.5 102h-267z" />
    <glyph glyph-name="C" unicode="C" horiz-adv-x="1236" 
d="M665 -8q-120 0 -229.5 57.5t-188.5 154t-126 230t-47 279.5t47 279.5t126 230t188.5 154t229.5 57.5h9v-1q165 -3 303 -107q26 -14 55 -14q47 0 80.5 33t33.5 80v9h16v-364v-5h-16v35q-71 131 -178 212v0q-137 105 -303 105q-118 0 -218 -94.5t-158.5 -256.5t-58.5 -353
q0 -143 34.5 -273.5t92.5 -225t139 -150.5t169 -56h1q163 0 302 105v1q108 82 178 211v35h16v-155v-202v-3v-8h-16v11q-2 46 -35 78.5t-79 32.5q-29 0 -55 -14q-139 -105 -303 -108h-7h-2z" />
    <glyph glyph-name="C" unicode="&#xc7;" horiz-adv-x="1236" 
d="M665 -8q-120 0 -229.5 57.5t-188.5 154t-126 230t-47 279.5t47 279.5t126 230t188.5 154t229.5 57.5h9v-1q165 -3 303 -107q26 -14 55 -14q47 0 80.5 33t33.5 80v9h16v-364v-5h-16v35q-71 131 -178 212v0q-137 105 -303 105q-118 0 -218 -94.5t-158.5 -256.5t-58.5 -353
q0 -143 34.5 -273.5t92.5 -225t139 -150.5t169 -56h1q163 0 302 105v1q108 82 178 211v35h16v-155v-202v-3v-8h-16v11q-2 46 -35 78.5t-79 32.5q-29 0 -55 -14q-139 -105 -303 -108h-7h-2z" />
    <glyph glyph-name="D" unicode="D" horiz-adv-x="1376" 
d="M205 -8h-131v16h49q34 0 58 23.5t24 57.5v1247q0 34 -24 57.5t-58 23.5h-49v17h147h132h220h8q146 0 279.5 -57t230 -153.5t154 -230t57.5 -280.5t-57.5 -280.5t-154 -230t-230 -153.5t-279.5 -57h-220h-156zM573 8h8q153 0 283 94.5t206 257t76 353.5t-76 353
t-206 256.5t-283 94.5h-220v-1409h212z" />
    <glyph glyph-name="E" unicode="E" horiz-adv-x="1146" 
d="M844 1434h229v-340h-17v110q0 88 -61.5 150t-149.5 63h-484v-696h188q34 0 58 23.5t24 57.5v50h16v-279h-16v50q0 34 -24 57.5t-58 23.5h-188v-696h483q88 0 150 62.5t62 150.5v110h17v-339h-712h-156h-131v16h49q34 0 58 23.5t24 57.5v1247q0 34 -24 57.5t-58 23.5h-49
v17h147h623z" />
    <glyph glyph-name="E" unicode="&#xcb;" horiz-adv-x="1146" 
d="M844 1434h229v-340h-17v110q0 88 -61.5 150t-149.5 63h-484v-696h188q34 0 58 23.5t24 57.5v50h16v-279h-16v50q0 34 -24 57.5t-58 23.5h-188v-696h483q88 0 150 62.5t62 150.5v110h17v-339h-712h-156h-131v16h49q34 0 58 23.5t24 57.5v1247q0 34 -24 57.5t-58 23.5h-49
v17h147h623z" />
    <glyph glyph-name="E" unicode="&#xca;" horiz-adv-x="1146" 
d="M844 1434h229v-340h-17v110q0 88 -61.5 150t-149.5 63h-484v-696h188q34 0 58 23.5t24 57.5v50h16v-279h-16v50q0 34 -24 57.5t-58 23.5h-188v-696h483q88 0 150 62.5t62 150.5v110h17v-339h-712h-156h-131v16h49q34 0 58 23.5t24 57.5v1247q0 34 -24 57.5t-58 23.5h-49
v17h147h623z" />
    <glyph glyph-name="E" unicode="&#xc9;" horiz-adv-x="1146" 
d="M844 1434h229v-340h-17v110q0 88 -61.5 150t-149.5 63h-484v-696h188q34 0 58 23.5t24 57.5v50h16v-279h-16v50q0 34 -24 57.5t-58 23.5h-188v-696h483q88 0 150 62.5t62 150.5v110h17v-339h-712h-156h-131v16h49q34 0 58 23.5t24 57.5v1247q0 34 -24 57.5t-58 23.5h-49
v17h147h623z" />
    <glyph glyph-name="E" unicode="&#xc8;" horiz-adv-x="1146" 
d="M844 1434h229v-340h-17v110q0 88 -61.5 150t-149.5 63h-484v-696h188q34 0 58 23.5t24 57.5v50h16v-279h-16v50q0 34 -24 57.5t-58 23.5h-188v-696h483q88 0 150 62.5t62 150.5v110h17v-339h-712h-156h-131v16h49q34 0 58 23.5t24 57.5v1247q0 34 -24 57.5t-58 23.5h-49
v17h147h623z" />
    <glyph glyph-name="F" unicode="F" horiz-adv-x="1146" 
d="M205 -8h-131v16h49q34 0 58 23.5t24 57.5v1247q0 34 -24 57.5t-58 23.5h-49v17h147h623h229v-340h-17v110q0 88 -61.5 150t-149.5 63h-484v-696h188q34 0 58 23.5t24 57.5v50h16v-279h-16v50q0 34 -24 57.5t-58 23.5h-188v-614q0 -34 23.5 -58t57.5 -24h50v-16h-131h-156
z" />
    <glyph glyph-name="G" unicode="G" horiz-adv-x="1368" 
d="M665 -8q-120 0 -229.5 57.5t-188.5 154t-126 230t-47 279.5t47 279.5t126 230t188.5 154t229.5 57.5h9v-1q165 -3 303 -107q26 -14 55 -14q47 0 80.5 33t33.5 80v9h16v-9v-355v-5h-16v35q-71 131 -178 212v0q-137 105 -303 105q-118 0 -218 -94.5t-158.5 -256.5
t-58.5 -353q0 -143 34.5 -273.5t92.5 -225t139 -150.5t169 -56h1q188 0 340 137v479q0 34 -23.5 57t-57.5 23h-50v17h131h156h131v-17h-49q-34 0 -58 -23.5t-24 -57.5v-302l-1 -2q-55 -102 -135 -178l-6 -5l-14 -13v1q-150 -129 -332 -132h-8h-1z" />
    <glyph glyph-name="H" unicode="H" 
d="M132 -8h-58v16h49q34 0 58 24t24 58v1246q0 34 -24 57.5t-58 23.5h-49v17h147h123h148v-17h-50q-34 0 -57.5 -23.5t-23.5 -57.5v-615h556v615q0 34 -24 57.5t-58 23.5h-49v17h147h123h148v-17h-50q-34 0 -57.5 -23.5t-23.5 -57.5v-1247q0 -34 23.5 -57.5t57.5 -23.5h50
v-16h-131h-156h-131v16h49q34 0 58 24t24 58v614h-556v-615q0 -34 23.5 -57.5t57.5 -23.5h50v-16h-131h-156h-73z" />
    <glyph glyph-name="I" unicode="I" horiz-adv-x="567" 
d="M132 -8h-58v16h49q34 0 58 24t24 58v1246q0 34 -24 57.5t-58 23.5h-49v17h147h123h148v-17h-50q-34 0 -57.5 -23.5t-23.5 -57.5v-1247q0 -34 23.5 -57.5t57.5 -23.5h50v-16h-131h-156h-73z" />
    <glyph glyph-name="I" unicode="&#xcf;" horiz-adv-x="567" 
d="M132 -8h-58v16h49q34 0 58 24t24 58v1246q0 34 -24 57.5t-58 23.5h-49v17h147h123h148v-17h-50q-34 0 -57.5 -23.5t-23.5 -57.5v-1247q0 -34 23.5 -57.5t57.5 -23.5h50v-16h-131h-156h-73z" />
    <glyph glyph-name="I" unicode="&#xce;" horiz-adv-x="567" 
d="M132 -8h-58v16h49q34 0 58 24t24 58v1246q0 34 -24 57.5t-58 23.5h-49v17h147h123h148v-17h-50q-34 0 -57.5 -23.5t-23.5 -57.5v-1247q0 -34 23.5 -57.5t57.5 -23.5h50v-16h-131h-156h-73z" />
    <glyph glyph-name="I" unicode="&#xcd;" horiz-adv-x="567" 
d="M132 -8h-58v16h49q34 0 58 24t24 58v1246q0 34 -24 57.5t-58 23.5h-49v17h147h123h148v-17h-50q-34 0 -57.5 -23.5t-23.5 -57.5v-1247q0 -34 23.5 -57.5t57.5 -23.5h50v-16h-131h-156h-73z" />
    <glyph glyph-name="I" unicode="&#xcc;" horiz-adv-x="567" 
d="M132 -8h-58v16h49q34 0 58 24t24 58v1246q0 34 -24 57.5t-58 23.5h-49v17h147h123h148v-17h-50q-34 0 -57.5 -23.5t-23.5 -57.5v-1247q0 -34 23.5 -57.5t57.5 -23.5h50v-16h-131h-156h-73z" />
    <glyph glyph-name="J" unicode="J" horiz-adv-x="569" 
d="M364 0q0 -151 -106.5 -257.5t-257.5 -106.5v16q86 0 147.5 102t61.5 246v1336q0 34 -24 57.5t-58 23.5h-50v17h419v-17h-50q-34 0 -58 -23.5t-24 -57.5v-1336z" />
    <glyph glyph-name="K" unicode="K" 
d="M132 -8h-58v16h49q34 0 58 24t24 58v1246q0 34 -24 57.5t-58 23.5h-49v17h147h123h148v-17h-50q-34 0 -57.5 -23.5t-23.5 -57.5v-1073l226 379l95 159l322 539q22 37 9 60q-9 17 -38 17h-50v17h279v-17h-50q-35 0 -75 -25t-61 -60v0l-327 -548l337 -691q17 -35 54 -60
t72 -25h50v-16h-126h-79q-39 0 -80.5 27.5t-60.5 66.5l-263 538l-234 -393v-142q0 -34 23.5 -57.5t57.5 -23.5h50v-16h-131h-156h-73z" />
    <glyph glyph-name="L" unicode="L" horiz-adv-x="1146" 
d="M132 -8h-58v16h49q34 0 58 23.5t24 57.5v1247q0 34 -24 57.5t-58 23.5h-49v17h131h156h131v-17h-50q-34 0 -57.5 -23.5t-23.5 -57.5v-1328h483q88 0 150 62.5t62 150.5v110h17v-339h-229h-623h-89z" />
    <glyph glyph-name="M" unicode="M" horiz-adv-x="1693" 
d="M132 -8h-58v16h49q34 0 58 24t24 58v1295q-42 32 -82 32h-49v17h144h61q40 0 80 -27t60 -67l430 -880l464 928q-24 29 -62 29h-50v17h131h156h131v-17h-49q-34 0 -58 -23.5t-24 -57.5v-1246q0 -34 24 -58t58 -24h49v-16h-147h-123h-148v16h50q34 0 57.5 23.5t23.5 57.5
v1247q0 20 -9 37l-465 -932l-80 -160v-1l-8 -14l-521 1067q-10 20 -28 38v-1281q0 -34 24 -58t58 -24h49v-16h-220zM1332 1390v1v-1z" />
    <glyph glyph-name="N" unicode="N" 
d="M925 1434h279v-17h-50q-34 0 -57.5 -23.5t-23.5 -57.5v-1296q42 -32 81 -32h50v-16h-126h-79q-39 0 -80.5 27.5t-60.5 66.5l-609 1246v0q-11 22 -28 39v-1281q0 -34 24 -58t58 -24h49v-16h-278v16h49q34 0 58 24t24 58v1295q-42 32 -82 32h-49v17h144h61q40 0 80 -27
t60 -67l609 -1247q10 -20 28 -38v1281q0 34 -23.5 57.5t-57.5 23.5h-50v17z" />
    <glyph glyph-name="N" unicode="&#xd1;" 
d="M925 1434h279v-17h-50q-34 0 -57.5 -23.5t-23.5 -57.5v-1296q42 -32 81 -32h50v-16h-126h-79q-39 0 -80.5 27.5t-60.5 66.5l-609 1246v0q-11 22 -28 39v-1281q0 -34 24 -58t58 -24h49v-16h-278v16h49q34 0 58 24t24 58v1295q-42 32 -82 32h-49v17h144h61q40 0 80 -27
t60 -67l609 -1247q10 -20 28 -38v1281q0 34 -23.5 57.5t-57.5 23.5h-50v17z" />
    <glyph glyph-name="O" unicode="O" horiz-adv-x="1331" 
d="M665 -8q-120 0 -229.5 57.5t-188.5 154t-126 230t-47 279.5t47 279.5t126 230t188.5 154t229.5 57.5q160 0 296.5 -96.5t216 -263t79.5 -361.5t-79.5 -361.5t-216 -263t-296.5 -96.5zM665 8q118 0 218.5 94.5t159 257t58.5 353.5t-58.5 353t-159 256.5t-218.5 94.5
t-218 -94.5t-158.5 -256.5t-58.5 -353q0 -143 34.5 -273.5t92.5 -225t139 -150.5t169 -56z" />
    <glyph glyph-name="O" unicode="&#xd8;" horiz-adv-x="1331" 
d="M665 -8q-120 0 -229.5 57.5t-188.5 154t-126 230t-47 279.5t47 279.5t126 230t188.5 154t229.5 57.5q160 0 296.5 -96.5t216 -263t79.5 -361.5t-79.5 -361.5t-216 -263t-296.5 -96.5zM665 8q118 0 218.5 94.5t159 257t58.5 353.5t-58.5 353t-159 256.5t-218.5 94.5
t-218 -94.5t-158.5 -256.5t-58.5 -353q0 -143 34.5 -273.5t92.5 -225t139 -150.5t169 -56z" />
    <glyph glyph-name="O" unicode="&#xd6;" horiz-adv-x="1331" 
d="M665 -8q-120 0 -229.5 57.5t-188.5 154t-126 230t-47 279.5t47 279.5t126 230t188.5 154t229.5 57.5q160 0 296.5 -96.5t216 -263t79.5 -361.5t-79.5 -361.5t-216 -263t-296.5 -96.5zM665 8q118 0 218.5 94.5t159 257t58.5 353.5t-58.5 353t-159 256.5t-218.5 94.5
t-218 -94.5t-158.5 -256.5t-58.5 -353q0 -143 34.5 -273.5t92.5 -225t139 -150.5t169 -56z" />
    <glyph glyph-name="O" unicode="&#xd5;" horiz-adv-x="1331" 
d="M665 -8q-120 0 -229.5 57.5t-188.5 154t-126 230t-47 279.5t47 279.5t126 230t188.5 154t229.5 57.5q160 0 296.5 -96.5t216 -263t79.5 -361.5t-79.5 -361.5t-216 -263t-296.5 -96.5zM665 8q118 0 218.5 94.5t159 257t58.5 353.5t-58.5 353t-159 256.5t-218.5 94.5
t-218 -94.5t-158.5 -256.5t-58.5 -353q0 -143 34.5 -273.5t92.5 -225t139 -150.5t169 -56z" />
    <glyph glyph-name="O" unicode="&#xd4;" horiz-adv-x="1331" 
d="M665 -8q-120 0 -229.5 57.5t-188.5 154t-126 230t-47 279.5t47 279.5t126 230t188.5 154t229.5 57.5q160 0 296.5 -96.5t216 -263t79.5 -361.5t-79.5 -361.5t-216 -263t-296.5 -96.5zM665 8q118 0 218.5 94.5t159 257t58.5 353.5t-58.5 353t-159 256.5t-218.5 94.5
t-218 -94.5t-158.5 -256.5t-58.5 -353q0 -143 34.5 -273.5t92.5 -225t139 -150.5t169 -56z" />
    <glyph glyph-name="O" unicode="&#xd3;" horiz-adv-x="1331" 
d="M665 -8q-120 0 -229.5 57.5t-188.5 154t-126 230t-47 279.5t47 279.5t126 230t188.5 154t229.5 57.5q160 0 296.5 -96.5t216 -263t79.5 -361.5t-79.5 -361.5t-216 -263t-296.5 -96.5zM665 8q118 0 218.5 94.5t159 257t58.5 353.5t-58.5 353t-159 256.5t-218.5 94.5
t-218 -94.5t-158.5 -256.5t-58.5 -353q0 -143 34.5 -273.5t92.5 -225t139 -150.5t169 -56z" />
    <glyph glyph-name="O" unicode="&#xd2;" horiz-adv-x="1331" 
d="M665 -8q-120 0 -229.5 57.5t-188.5 154t-126 230t-47 279.5t47 279.5t126 230t188.5 154t229.5 57.5q160 0 296.5 -96.5t216 -263t79.5 -361.5t-79.5 -361.5t-216 -263t-296.5 -96.5zM665 8q118 0 218.5 94.5t159 257t58.5 353.5t-58.5 353t-159 256.5t-218.5 94.5
t-218 -94.5t-158.5 -256.5t-58.5 -353q0 -143 34.5 -273.5t92.5 -225t139 -150.5t169 -56z" />
    <glyph glyph-name="P" unicode="P" horiz-adv-x="1148" 
d="M132 -8h-58v16h49q34 0 58 23.5t24 57.5v1247q0 34 -24 57.5t-58 23.5h-49v17h131h156l348 -1h1q151 0 258 -106.5t107 -257.5t-107 -257.5t-258 -106.5h-349v-615q0 -34 23.5 -58t57.5 -24h50v-16h-148h-123h-89zM702 1417h-341v-696h341h8q86 0 147.5 102t61.5 246
t-61.5 246t-147.5 102h-8z" />
    <glyph glyph-name="Q" unicode="Q" horiz-adv-x="1331" 
d="M413 61q-152 88 -245.5 264t-93.5 388q0 146 47 279.5t126 230t188.5 154t229.5 57.5q160 0 296.5 -96.5t216 -263t79.5 -361.5t-79.5 -361.5t-216 -263t-296.5 -96.5q-123 0 -237 61l-135 -135q103 55 223 37.5t205 -102.5q99 -99 213 -129t176 27l12 -12
q-105 -102 -254 -102q-152 0 -258 106q-99 99 -213 129t-176 -27l-6 -5l-12 11zM1101 726l-637 -637q95 -81 201 -81q118 0 218.5 94.5t159 257t58.5 353.5v13zM451 100l650 649q-6 183 -65.5 336.5t-157.5 242.5t-213 89q-118 0 -218 -94.5t-158.5 -256.5t-58.5 -353
q0 -194 60 -357.5t161 -255.5z" />
    <glyph glyph-name="R" unicode="R" horiz-adv-x="1280" 
d="M221 -8h-147v16h49q34 0 58 23.5t24 57.5v1247q0 34 -24 57.5t-58 23.5h-49v17h131h156l348 -1h1h6q149 -2 254 -109t105 -255q0 -147 -104.5 -254t-251.5 -110h-3h-6h-23q54 -28 79 -78l264 -534q17 -35 54 -60t72 -25h50v-16h-126h-79q-39 0 -80.5 27.5t-60.5 66.5
l-264 534v-1q-17 35 -54 60.5t-72 25.5h-109v-615q0 -34 23.5 -58t57.5 -24h50v-16h-148h-123zM702 1417h-341v-696h349h6h2q85 5 143 106t58 242q0 140 -59.5 242t-143.5 106h-5h-1h-8z" />
    <glyph glyph-name="S" unicode="S" horiz-adv-x="1015" 
d="M202 852q-128 99 -128 241q0 137 121 236v1l7 5q122 95 294 98.5t299 -85.5q19 -10 42 -10q37 0 63 26t26 62v7h16v-331h-16q-5 128 -122 220q-122 95 -296 95t-296 -95q-51 -40 -51 -107q0 -63 43.5 -132.5t120.5 -129.5l489 -380q128 -99 128 -241q0 -136 -122 -236h1
l-7 -5q-122 -95 -294.5 -99t-299.5 85q-20 11 -42 11q-36 0 -62 -25.5t-26 -62.5v-8h-16v331h16q5 -127 122 -219q122 -95 296 -95t296 95q51 40 51 106q0 63 -44 132.5t-121 129.5z" />
    <glyph glyph-name="T" unicode="T" horiz-adv-x="1015" 
d="M90 1204v-110h-16v340h229h410h229v-340h-17v110q0 88 -61.5 150t-149.5 63h-128v-1327q0 -34 23.5 -58t57.5 -24h50v-16h-131h-156h-131v16h49q34 0 58 23.5t24 57.5v1328h-128q-88 -1 -150 -63t-62 -150z" />
    <glyph glyph-name="U" unicode="U" 
d="M1073 1434h131v-17h-50q-34 0 -57.5 -23.5t-23.5 -57.5v-910q0 -178 -124.5 -304.5t-301.5 -129.5h-8q-179 0 -306.5 127.5t-127.5 306.5v910q0 34 -24 57.5t-58 23.5h-49v17h131h156h131v-17h-50q-34 0 -57.5 -23.5t-23.5 -57.5v-910q0 -113 37.5 -209.5t101.5 -152.5
t139 -56q172 0 294.5 122.5t122.5 295.5v910q0 34 -23.5 57.5t-57.5 23.5h-50v17h131h17z" />
    <glyph glyph-name="U" unicode="&#xdc;" 
d="M1073 1434h131v-17h-50q-34 0 -57.5 -23.5t-23.5 -57.5v-910q0 -178 -124.5 -304.5t-301.5 -129.5h-8q-179 0 -306.5 127.5t-127.5 306.5v910q0 34 -24 57.5t-58 23.5h-49v17h131h156h131v-17h-50q-34 0 -57.5 -23.5t-23.5 -57.5v-910q0 -113 37.5 -209.5t101.5 -152.5
t139 -56q172 0 294.5 122.5t122.5 295.5v910q0 34 -23.5 57.5t-57.5 23.5h-50v17h131h17z" />
    <glyph glyph-name="U" unicode="&#xdb;" 
d="M1073 1434h131v-17h-50q-34 0 -57.5 -23.5t-23.5 -57.5v-910q0 -178 -124.5 -304.5t-301.5 -129.5h-8q-179 0 -306.5 127.5t-127.5 306.5v910q0 34 -24 57.5t-58 23.5h-49v17h131h156h131v-17h-50q-34 0 -57.5 -23.5t-23.5 -57.5v-910q0 -113 37.5 -209.5t101.5 -152.5
t139 -56q172 0 294.5 122.5t122.5 295.5v910q0 34 -23.5 57.5t-57.5 23.5h-50v17h131h17z" />
    <glyph glyph-name="U" unicode="&#xda;" 
d="M1073 1434h131v-17h-50q-34 0 -57.5 -23.5t-23.5 -57.5v-910q0 -178 -124.5 -304.5t-301.5 -129.5h-8q-179 0 -306.5 127.5t-127.5 306.5v910q0 34 -24 57.5t-58 23.5h-49v17h131h156h131v-17h-50q-34 0 -57.5 -23.5t-23.5 -57.5v-910q0 -113 37.5 -209.5t101.5 -152.5
t139 -56q172 0 294.5 122.5t122.5 295.5v910q0 34 -23.5 57.5t-57.5 23.5h-50v17h131h17z" />
    <glyph glyph-name="U" unicode="&#xd9;" 
d="M1073 1434h131v-17h-50q-34 0 -57.5 -23.5t-23.5 -57.5v-910q0 -178 -124.5 -304.5t-301.5 -129.5h-8q-179 0 -306.5 127.5t-127.5 306.5v910q0 34 -24 57.5t-58 23.5h-49v17h131h156h131v-17h-50q-34 0 -57.5 -23.5t-23.5 -57.5v-910q0 -113 37.5 -209.5t101.5 -152.5
t139 -56q172 0 294.5 122.5t122.5 295.5v910q0 34 -23.5 57.5t-57.5 23.5h-50v17h131h17z" />
    <glyph glyph-name="V" unicode="V" 
d="M925 1434h279v-17h-50q-34 0 -65.5 -24.5t-42.5 -59.5l-326 -1089l-54 -181l-20 -65l-1 -6h-13l-400 1342q-10 34 -42 58.5t-67 24.5h-49v17h128h67q40 0 76 -28t48 -68l318 -1065l319 1065q11 34 -7 58q-15 21 -48 21h-50v17z" />
    <glyph glyph-name="W" unicode="W" horiz-adv-x="1632" 
d="M1499 1434h58v-17h-50q-34 0 -65.5 -24.5t-42.5 -59.5l-326 -1089l-42 -140l-31 -106v0l-2 -6h-12l-171 571l-108 -362l-61 -203l-1 -6h-13l-400 1341v0q-11 35 -43 59.5t-66 24.5h-49v17h128h67q40 0 76 -28t48 -68l318 -1065l96 318l-222 743q-11 35 -42.5 59t-65.5 24
h-50v17h128h146h151v-17h-50q-33 0 -48 -21q-16 -22 -7 -57l141 -475l142 474q11 34 -7 58q-15 21 -48 21h-50v17h279v-17h-50q-34 0 -65.5 -24.5t-42.5 -59.5l-149 -497v0l168 -563l318 1065q11 34 -7 58q-15 21 -48 21h-49v17h220z" />
    <glyph glyph-name="X" unicode="X" 
d="M1028 93q17 -35 54 -60t72 -25h50v-16h-126h-79q-39 0 -80.5 27.5t-60.5 66.5l-263 538l-322 -539q-22 -36 -9 -59q10 -18 39 -18h49v-16h-278v16h49q35 0 75 25.5t61 60.5h1l327 548l-338 690v0q-17 35 -54 60t-72 25h-49v17h144h61q40 0 80 -27t60 -67l263 -539
l322 539q22 37 9 60q-9 17 -38 17h-50v17h279v-17h-50q-35 0 -75 -25t-61 -60v0l-327 -548z" />
    <glyph glyph-name="Y" unicode="Y" 
d="M1146 1434h58v-17h-50q-35 0 -70.5 -25t-51.5 -60l-308 -686l-7 -16v-541q0 -34 24 -57.5t58 -23.5h49v-16h-131h-156h-131v16h50q34 0 57.5 24t23.5 58v539l-315 703q-16 35 -52 60t-71 25h-49v17h144h58q39 0 79 -27.5t58 -66.5l1 -1l301 -673l302 673q15 35 1 59
q-12 19 -43 19h-50v17h221z" />
    <glyph glyph-name="Y" unicode="&#x178;" 
d="M1146 1434h58v-17h-50q-35 0 -70.5 -25t-51.5 -60l-308 -686l-7 -16v-541q0 -34 24 -57.5t58 -23.5h49v-16h-131h-156h-131v16h50q34 0 57.5 24t23.5 58v539l-315 703q-16 35 -52 60t-71 25h-49v17h144h58q39 0 79 -27.5t58 -66.5l1 -1l301 -673l302 673q15 35 1 59
q-12 19 -43 19h-50v17h221z" />
    <glyph glyph-name="Y" unicode="&#xdd;" 
d="M1146 1434h58v-17h-50q-35 0 -70.5 -25t-51.5 -60l-308 -686l-7 -16v-541q0 -34 24 -57.5t58 -23.5h49v-16h-131h-156h-131v16h50q34 0 57.5 24t23.5 58v539l-315 703q-16 35 -52 60t-71 25h-49v17h144h58q39 0 79 -27.5t58 -66.5l1 -1l301 -673l302 673q15 35 1 59
q-12 19 -43 19h-50v17h221z" />
    <glyph glyph-name="Z" unicode="Z" 
d="M1154 1434h50v-17h-50q-35 0 -72 -25t-54 -60l-646 -1324h463q88 1 149.5 63t61.5 150v110h17v-339h-229h-475h-90h-79h-126v16h49q35 0 72 25t54 60l648 1324h-464q-88 -1 -150 -63t-62 -150v-110h-16v340h229h471h154h95z" />
    <glyph glyph-name="a" unicode="a" 
d="M132 -8h-58v16h49q34 0 66 24.5t43 59.5l326 1090l47 159l26 87v0l2 6h12l401 -1342q11 -35 42.5 -59.5t65.5 -24.5h50v-16h-128h-67q-40 0 -76.5 27.5t-48.5 67.5l-113 380h-410l-113 -380q-11 -33 7 -57q16 -22 48 -22h49v-16h-220zM366 483h400l-200 670z" />
    <glyph glyph-name="a" unicode="&#xe5;" 
d="M132 -8h-58v16h49q34 0 66 24.5t43 59.5l326 1090l47 159l26 87v0l2 6h12l401 -1342q11 -35 42.5 -59.5t65.5 -24.5h50v-16h-128h-67q-40 0 -76.5 27.5t-48.5 67.5l-113 380h-410l-113 -380q-11 -33 7 -57q16 -22 48 -22h49v-16h-220zM366 483h400l-200 670z" />
    <glyph glyph-name="a" unicode="&#xe4;" 
d="M132 -8h-58v16h49q34 0 66 24.5t43 59.5l326 1090l47 159l26 87v0l2 6h12l401 -1342q11 -35 42.5 -59.5t65.5 -24.5h50v-16h-128h-67q-40 0 -76.5 27.5t-48.5 67.5l-113 380h-410l-113 -380q-11 -33 7 -57q16 -22 48 -22h49v-16h-220zM366 483h400l-200 670z" />
    <glyph glyph-name="a" unicode="&#xe3;" 
d="M132 -8h-58v16h49q34 0 66 24.5t43 59.5l326 1090l47 159l26 87v0l2 6h12l401 -1342q11 -35 42.5 -59.5t65.5 -24.5h50v-16h-128h-67q-40 0 -76.5 27.5t-48.5 67.5l-113 380h-410l-113 -380q-11 -33 7 -57q16 -22 48 -22h49v-16h-220zM366 483h400l-200 670z" />
    <glyph glyph-name="a" unicode="&#xe2;" 
d="M132 -8h-58v16h49q34 0 66 24.5t43 59.5l326 1090l47 159l26 87v0l2 6h12l401 -1342q11 -35 42.5 -59.5t65.5 -24.5h50v-16h-128h-67q-40 0 -76.5 27.5t-48.5 67.5l-113 380h-410l-113 -380q-11 -33 7 -57q16 -22 48 -22h49v-16h-220zM366 483h400l-200 670z" />
    <glyph glyph-name="a" unicode="&#xe1;" 
d="M132 -8h-58v16h49q34 0 66 24.5t43 59.5l326 1090l47 159l26 87v0l2 6h12l401 -1342q11 -35 42.5 -59.5t65.5 -24.5h50v-16h-128h-67q-40 0 -76.5 27.5t-48.5 67.5l-113 380h-410l-113 -380q-11 -33 7 -57q16 -22 48 -22h49v-16h-220zM366 483h400l-200 670z" />
    <glyph glyph-name="a" unicode="&#xe0;" 
d="M132 -8h-58v16h49q34 0 66 24.5t43 59.5l326 1090l47 159l26 87v0l2 6h12l401 -1342q11 -35 42.5 -59.5t65.5 -24.5h50v-16h-128h-67q-40 0 -76.5 27.5t-48.5 67.5l-113 380h-410l-113 -380q-11 -33 7 -57q16 -22 48 -22h49v-16h-220zM366 483h400l-200 670z" />
    <glyph glyph-name="b" unicode="b" horiz-adv-x="1148" 
d="M205 -8h-131v16h49q34 0 58 23.5t24 57.5v1247q0 34 -24 57.5t-58 23.5h-49v17h147h132h267h8q151 0 258 -107t107 -258q0 -122 -72.5 -218.5t-186.5 -130.5q143 -9 242 -114.5t99 -249.5q0 -151 -107 -257.5t-258 -106.5h-349h-156zM361 705v-697h341h8q86 0 147.5 102
t61.5 246t-61.5 246t-147.5 102h-8zM361 1417v-696h259h8q86 0 147.5 102t61.5 246t-61.5 246t-147.5 102h-267z" />
    <glyph glyph-name="c" unicode="c" horiz-adv-x="1236" 
d="M665 -8q-120 0 -229.5 57.5t-188.5 154t-126 230t-47 279.5t47 279.5t126 230t188.5 154t229.5 57.5h9v-1q165 -3 303 -107q26 -14 55 -14q47 0 80.5 33t33.5 80v9h16v-364v-5h-16v35q-71 131 -178 212v0q-137 105 -303 105q-118 0 -218 -94.5t-158.5 -256.5t-58.5 -353
q0 -143 34.5 -273.5t92.5 -225t139 -150.5t169 -56h1q163 0 302 105v1q108 82 178 211v35h16v-155v-202v-3v-8h-16v11q-2 46 -35 78.5t-79 32.5q-29 0 -55 -14q-139 -105 -303 -108h-7h-2z" />
    <glyph glyph-name="c" unicode="&#xe7;" horiz-adv-x="1236" 
d="M665 -8q-120 0 -229.5 57.5t-188.5 154t-126 230t-47 279.5t47 279.5t126 230t188.5 154t229.5 57.5h9v-1q165 -3 303 -107q26 -14 55 -14q47 0 80.5 33t33.5 80v9h16v-364v-5h-16v35q-71 131 -178 212v0q-137 105 -303 105q-118 0 -218 -94.5t-158.5 -256.5t-58.5 -353
q0 -143 34.5 -273.5t92.5 -225t139 -150.5t169 -56h1q163 0 302 105v1q108 82 178 211v35h16v-155v-202v-3v-8h-16v11q-2 46 -35 78.5t-79 32.5q-29 0 -55 -14q-139 -105 -303 -108h-7h-2z" />
    <glyph glyph-name="d" unicode="d" horiz-adv-x="1376" 
d="M205 -8h-131v16h49q34 0 58 23.5t24 57.5v1247q0 34 -24 57.5t-58 23.5h-49v17h147h132h220h8q146 0 279.5 -57t230 -153.5t154 -230t57.5 -280.5t-57.5 -280.5t-154 -230t-230 -153.5t-279.5 -57h-220h-156zM573 8h8q153 0 283 94.5t206 257t76 353.5t-76 353
t-206 256.5t-283 94.5h-220v-1409h212z" />
    <glyph glyph-name="e" unicode="e" horiz-adv-x="1146" 
d="M844 1434h229v-340h-17v110q0 88 -61.5 150t-149.5 63h-484v-696h188q34 0 58 23.5t24 57.5v50h16v-279h-16v50q0 34 -24 57.5t-58 23.5h-188v-696h483q88 0 150 62.5t62 150.5v110h17v-339h-712h-156h-131v16h49q34 0 58 23.5t24 57.5v1247q0 34 -24 57.5t-58 23.5h-49
v17h147h623z" />
    <glyph glyph-name="e" unicode="&#xeb;" horiz-adv-x="1146" 
d="M844 1434h229v-340h-17v110q0 88 -61.5 150t-149.5 63h-484v-696h188q34 0 58 23.5t24 57.5v50h16v-279h-16v50q0 34 -24 57.5t-58 23.5h-188v-696h483q88 0 150 62.5t62 150.5v110h17v-339h-712h-156h-131v16h49q34 0 58 23.5t24 57.5v1247q0 34 -24 57.5t-58 23.5h-49
v17h147h623z" />
    <glyph glyph-name="e" unicode="&#xea;" horiz-adv-x="1146" 
d="M844 1434h229v-340h-17v110q0 88 -61.5 150t-149.5 63h-484v-696h188q34 0 58 23.5t24 57.5v50h16v-279h-16v50q0 34 -24 57.5t-58 23.5h-188v-696h483q88 0 150 62.5t62 150.5v110h17v-339h-712h-156h-131v16h49q34 0 58 23.5t24 57.5v1247q0 34 -24 57.5t-58 23.5h-49
v17h147h623z" />
    <glyph glyph-name="e" unicode="&#xe9;" horiz-adv-x="1146" 
d="M844 1434h229v-340h-17v110q0 88 -61.5 150t-149.5 63h-484v-696h188q34 0 58 23.5t24 57.5v50h16v-279h-16v50q0 34 -24 57.5t-58 23.5h-188v-696h483q88 0 150 62.5t62 150.5v110h17v-339h-712h-156h-131v16h49q34 0 58 23.5t24 57.5v1247q0 34 -24 57.5t-58 23.5h-49
v17h147h623z" />
    <glyph glyph-name="e" unicode="&#xe8;" horiz-adv-x="1146" 
d="M844 1434h229v-340h-17v110q0 88 -61.5 150t-149.5 63h-484v-696h188q34 0 58 23.5t24 57.5v50h16v-279h-16v50q0 34 -24 57.5t-58 23.5h-188v-696h483q88 0 150 62.5t62 150.5v110h17v-339h-712h-156h-131v16h49q34 0 58 23.5t24 57.5v1247q0 34 -24 57.5t-58 23.5h-49
v17h147h623z" />
    <glyph glyph-name="f" unicode="f" horiz-adv-x="1146" 
d="M205 -8h-131v16h49q34 0 58 23.5t24 57.5v1247q0 34 -24 57.5t-58 23.5h-49v17h147h623h229v-340h-17v110q0 88 -61.5 150t-149.5 63h-484v-696h188q34 0 58 23.5t24 57.5v50h16v-279h-16v50q0 34 -24 57.5t-58 23.5h-188v-614q0 -34 23.5 -58t57.5 -24h50v-16h-131h-156
z" />
    <glyph glyph-name="g" unicode="g" horiz-adv-x="1368" 
d="M665 -8q-120 0 -229.5 57.5t-188.5 154t-126 230t-47 279.5t47 279.5t126 230t188.5 154t229.5 57.5h9v-1q165 -3 303 -107q26 -14 55 -14q47 0 80.5 33t33.5 80v9h16v-9v-355v-5h-16v35q-71 131 -178 212v0q-137 105 -303 105q-118 0 -218 -94.5t-158.5 -256.5
t-58.5 -353q0 -143 34.5 -273.5t92.5 -225t139 -150.5t169 -56h1q188 0 340 137v479q0 34 -23.5 57t-57.5 23h-50v17h131h156h131v-17h-49q-34 0 -58 -23.5t-24 -57.5v-302l-1 -2q-55 -102 -135 -178l-6 -5l-14 -13v1q-150 -129 -332 -132h-8h-1z" />
    <glyph glyph-name="h" unicode="h" 
d="M132 -8h-58v16h49q34 0 58 24t24 58v1246q0 34 -24 57.5t-58 23.5h-49v17h147h123h148v-17h-50q-34 0 -57.5 -23.5t-23.5 -57.5v-615h556v615q0 34 -24 57.5t-58 23.5h-49v17h147h123h148v-17h-50q-34 0 -57.5 -23.5t-23.5 -57.5v-1247q0 -34 23.5 -57.5t57.5 -23.5h50
v-16h-131h-156h-131v16h49q34 0 58 24t24 58v614h-556v-615q0 -34 23.5 -57.5t57.5 -23.5h50v-16h-131h-156h-73z" />
    <glyph glyph-name="i" unicode="i" horiz-adv-x="567" 
d="M132 -8h-58v16h49q34 0 58 24t24 58v1246q0 34 -24 57.5t-58 23.5h-49v17h147h123h148v-17h-50q-34 0 -57.5 -23.5t-23.5 -57.5v-1247q0 -34 23.5 -57.5t57.5 -23.5h50v-16h-131h-156h-73z" />
    <glyph glyph-name="i" unicode="&#xef;" horiz-adv-x="567" 
d="M132 -8h-58v16h49q34 0 58 24t24 58v1246q0 34 -24 57.5t-58 23.5h-49v17h147h123h148v-17h-50q-34 0 -57.5 -23.5t-23.5 -57.5v-1247q0 -34 23.5 -57.5t57.5 -23.5h50v-16h-131h-156h-73z" />
    <glyph glyph-name="i" unicode="&#xee;" horiz-adv-x="567" 
d="M132 -8h-58v16h49q34 0 58 24t24 58v1246q0 34 -24 57.5t-58 23.5h-49v17h147h123h148v-17h-50q-34 0 -57.5 -23.5t-23.5 -57.5v-1247q0 -34 23.5 -57.5t57.5 -23.5h50v-16h-131h-156h-73z" />
    <glyph glyph-name="i" unicode="&#xed;" horiz-adv-x="567" 
d="M132 -8h-58v16h49q34 0 58 24t24 58v1246q0 34 -24 57.5t-58 23.5h-49v17h147h123h148v-17h-50q-34 0 -57.5 -23.5t-23.5 -57.5v-1247q0 -34 23.5 -57.5t57.5 -23.5h50v-16h-131h-156h-73z" />
    <glyph glyph-name="i" unicode="&#xec;" horiz-adv-x="567" 
d="M132 -8h-58v16h49q34 0 58 24t24 58v1246q0 34 -24 57.5t-58 23.5h-49v17h147h123h148v-17h-50q-34 0 -57.5 -23.5t-23.5 -57.5v-1247q0 -34 23.5 -57.5t57.5 -23.5h50v-16h-131h-156h-73z" />
    <glyph glyph-name="j" unicode="j" horiz-adv-x="569" 
d="M364 0q0 -151 -106.5 -257.5t-257.5 -106.5v16q86 0 147.5 102t61.5 246v1336q0 34 -24 57.5t-58 23.5h-50v17h419v-17h-50q-34 0 -58 -23.5t-24 -57.5v-1336z" />
    <glyph glyph-name="k" unicode="k" 
d="M132 -8h-58v16h49q34 0 58 24t24 58v1246q0 34 -24 57.5t-58 23.5h-49v17h147h123h148v-17h-50q-34 0 -57.5 -23.5t-23.5 -57.5v-1073l226 379l95 159l322 539q22 37 9 60q-9 17 -38 17h-50v17h279v-17h-50q-35 0 -75 -25t-61 -60v0l-327 -548l337 -691q17 -35 54 -60
t72 -25h50v-16h-126h-79q-39 0 -80.5 27.5t-60.5 66.5l-263 538l-234 -393v-142q0 -34 23.5 -57.5t57.5 -23.5h50v-16h-131h-156h-73z" />
    <glyph glyph-name="l" unicode="l" horiz-adv-x="1146" 
d="M132 -8h-58v16h49q34 0 58 23.5t24 57.5v1247q0 34 -24 57.5t-58 23.5h-49v17h131h156h131v-17h-50q-34 0 -57.5 -23.5t-23.5 -57.5v-1328h483q88 0 150 62.5t62 150.5v110h17v-339h-229h-623h-89z" />
    <glyph glyph-name="m" unicode="m" horiz-adv-x="1693" 
d="M132 -8h-58v16h49q34 0 58 24t24 58v1295q-42 32 -82 32h-49v17h144h61q40 0 80 -27t60 -67l430 -880l464 928q-24 29 -62 29h-50v17h131h156h131v-17h-49q-34 0 -58 -23.5t-24 -57.5v-1246q0 -34 24 -58t58 -24h49v-16h-147h-123h-148v16h50q34 0 57.5 23.5t23.5 57.5
v1247q0 20 -9 37l-465 -932l-80 -160v-1l-8 -14l-521 1067q-10 20 -28 38v-1281q0 -34 24 -58t58 -24h49v-16h-220zM1332 1390v1v-1z" />
    <glyph glyph-name="n" unicode="n" 
d="M925 1434h279v-17h-50q-34 0 -57.5 -23.5t-23.5 -57.5v-1296q42 -32 81 -32h50v-16h-126h-79q-39 0 -80.5 27.5t-60.5 66.5l-609 1246v0q-11 22 -28 39v-1281q0 -34 24 -58t58 -24h49v-16h-278v16h49q34 0 58 24t24 58v1295q-42 32 -82 32h-49v17h144h61q40 0 80 -27
t60 -67l609 -1247q10 -20 28 -38v1281q0 34 -23.5 57.5t-57.5 23.5h-50v17z" />
    <glyph glyph-name="n" unicode="&#xf1;" 
d="M925 1434h279v-17h-50q-34 0 -57.5 -23.5t-23.5 -57.5v-1296q42 -32 81 -32h50v-16h-126h-79q-39 0 -80.5 27.5t-60.5 66.5l-609 1246v0q-11 22 -28 39v-1281q0 -34 24 -58t58 -24h49v-16h-278v16h49q34 0 58 24t24 58v1295q-42 32 -82 32h-49v17h144h61q40 0 80 -27
t60 -67l609 -1247q10 -20 28 -38v1281q0 34 -23.5 57.5t-57.5 23.5h-50v17z" />
    <glyph glyph-name="o" unicode="o" horiz-adv-x="1331" 
d="M665 -8q-120 0 -229.5 57.5t-188.5 154t-126 230t-47 279.5t47 279.5t126 230t188.5 154t229.5 57.5q160 0 296.5 -96.5t216 -263t79.5 -361.5t-79.5 -361.5t-216 -263t-296.5 -96.5zM665 8q118 0 218.5 94.5t159 257t58.5 353.5t-58.5 353t-159 256.5t-218.5 94.5
t-218 -94.5t-158.5 -256.5t-58.5 -353q0 -143 34.5 -273.5t92.5 -225t139 -150.5t169 -56z" />
    <glyph glyph-name="o" unicode="&#xf8;" horiz-adv-x="1331" 
d="M665 -8q-120 0 -229.5 57.5t-188.5 154t-126 230t-47 279.5t47 279.5t126 230t188.5 154t229.5 57.5q160 0 296.5 -96.5t216 -263t79.5 -361.5t-79.5 -361.5t-216 -263t-296.5 -96.5zM665 8q118 0 218.5 94.5t159 257t58.5 353.5t-58.5 353t-159 256.5t-218.5 94.5
t-218 -94.5t-158.5 -256.5t-58.5 -353q0 -143 34.5 -273.5t92.5 -225t139 -150.5t169 -56z" />
    <glyph glyph-name="o" unicode="&#xf6;" horiz-adv-x="1331" 
d="M665 -8q-120 0 -229.5 57.5t-188.5 154t-126 230t-47 279.5t47 279.5t126 230t188.5 154t229.5 57.5q160 0 296.5 -96.5t216 -263t79.5 -361.5t-79.5 -361.5t-216 -263t-296.5 -96.5zM665 8q118 0 218.5 94.5t159 257t58.5 353.5t-58.5 353t-159 256.5t-218.5 94.5
t-218 -94.5t-158.5 -256.5t-58.5 -353q0 -143 34.5 -273.5t92.5 -225t139 -150.5t169 -56z" />
    <glyph glyph-name="o" unicode="&#xf5;" horiz-adv-x="1331" 
d="M665 -8q-120 0 -229.5 57.5t-188.5 154t-126 230t-47 279.5t47 279.5t126 230t188.5 154t229.5 57.5q160 0 296.5 -96.5t216 -263t79.5 -361.5t-79.5 -361.5t-216 -263t-296.5 -96.5zM665 8q118 0 218.5 94.5t159 257t58.5 353.5t-58.5 353t-159 256.5t-218.5 94.5
t-218 -94.5t-158.5 -256.5t-58.5 -353q0 -143 34.5 -273.5t92.5 -225t139 -150.5t169 -56z" />
    <glyph glyph-name="o" unicode="&#xf4;" horiz-adv-x="1331" 
d="M665 -8q-120 0 -229.5 57.5t-188.5 154t-126 230t-47 279.5t47 279.5t126 230t188.5 154t229.5 57.5q160 0 296.5 -96.5t216 -263t79.5 -361.5t-79.5 -361.5t-216 -263t-296.5 -96.5zM665 8q118 0 218.5 94.5t159 257t58.5 353.5t-58.5 353t-159 256.5t-218.5 94.5
t-218 -94.5t-158.5 -256.5t-58.5 -353q0 -143 34.5 -273.5t92.5 -225t139 -150.5t169 -56z" />
    <glyph glyph-name="o" unicode="&#xf3;" horiz-adv-x="1331" 
d="M665 -8q-120 0 -229.5 57.5t-188.5 154t-126 230t-47 279.5t47 279.5t126 230t188.5 154t229.5 57.5q160 0 296.5 -96.5t216 -263t79.5 -361.5t-79.5 -361.5t-216 -263t-296.5 -96.5zM665 8q118 0 218.5 94.5t159 257t58.5 353.5t-58.5 353t-159 256.5t-218.5 94.5
t-218 -94.5t-158.5 -256.5t-58.5 -353q0 -143 34.5 -273.5t92.5 -225t139 -150.5t169 -56z" />
    <glyph glyph-name="o" unicode="&#xf2;" horiz-adv-x="1331" 
d="M665 -8q-120 0 -229.5 57.5t-188.5 154t-126 230t-47 279.5t47 279.5t126 230t188.5 154t229.5 57.5q160 0 296.5 -96.5t216 -263t79.5 -361.5t-79.5 -361.5t-216 -263t-296.5 -96.5zM665 8q118 0 218.5 94.5t159 257t58.5 353.5t-58.5 353t-159 256.5t-218.5 94.5
t-218 -94.5t-158.5 -256.5t-58.5 -353q0 -143 34.5 -273.5t92.5 -225t139 -150.5t169 -56z" />
    <glyph glyph-name="p" unicode="p" horiz-adv-x="1148" 
d="M132 -8h-58v16h49q34 0 58 23.5t24 57.5v1247q0 34 -24 57.5t-58 23.5h-49v17h131h156l348 -1h1q151 0 258 -106.5t107 -257.5t-107 -257.5t-258 -106.5h-349v-615q0 -34 23.5 -58t57.5 -24h50v-16h-148h-123h-89zM702 1417h-341v-696h341h8q86 0 147.5 102t61.5 246
t-61.5 246t-147.5 102h-8z" />
    <glyph glyph-name="q" unicode="q" horiz-adv-x="1331" 
d="M413 61q-152 88 -245.5 264t-93.5 388q0 146 47 279.5t126 230t188.5 154t229.5 57.5q160 0 296.5 -96.5t216 -263t79.5 -361.5t-79.5 -361.5t-216 -263t-296.5 -96.5q-123 0 -237 61l-135 -135q103 55 223 37.5t205 -102.5q99 -99 213 -129t176 27l12 -12
q-105 -102 -254 -102q-152 0 -258 106q-99 99 -213 129t-176 -27l-6 -5l-12 11zM1101 726l-637 -637q95 -81 201 -81q118 0 218.5 94.5t159 257t58.5 353.5v13zM451 100l650 649q-6 183 -65.5 336.5t-157.5 242.5t-213 89q-118 0 -218 -94.5t-158.5 -256.5t-58.5 -353
q0 -194 60 -357.5t161 -255.5z" />
    <glyph glyph-name="r" unicode="r" horiz-adv-x="1280" 
d="M221 -8h-147v16h49q34 0 58 23.5t24 57.5v1247q0 34 -24 57.5t-58 23.5h-49v17h131h156l348 -1h1h6q149 -2 254 -109t105 -255q0 -147 -104.5 -254t-251.5 -110h-3h-6h-23q54 -28 79 -78l264 -534q17 -35 54 -60t72 -25h50v-16h-126h-79q-39 0 -80.5 27.5t-60.5 66.5
l-264 534v-1q-17 35 -54 60.5t-72 25.5h-109v-615q0 -34 23.5 -58t57.5 -24h50v-16h-148h-123zM702 1417h-341v-696h349h6h2q85 5 143 106t58 242q0 140 -59.5 242t-143.5 106h-5h-1h-8z" />
    <glyph glyph-name="s" unicode="s" horiz-adv-x="1015" 
d="M202 852q-128 99 -128 241q0 137 121 236v1l7 5q122 95 294 98.5t299 -85.5q19 -10 42 -10q37 0 63 26t26 62v7h16v-331h-16q-5 128 -122 220q-122 95 -296 95t-296 -95q-51 -40 -51 -107q0 -63 43.5 -132.5t120.5 -129.5l489 -380q128 -99 128 -241q0 -136 -122 -236h1
l-7 -5q-122 -95 -294.5 -99t-299.5 85q-20 11 -42 11q-36 0 -62 -25.5t-26 -62.5v-8h-16v331h16q5 -127 122 -219q122 -95 296 -95t296 95q51 40 51 106q0 63 -44 132.5t-121 129.5z" />
    <glyph glyph-name="t" unicode="t" horiz-adv-x="1015" 
d="M90 1204v-110h-16v340h229h410h229v-340h-17v110q0 88 -61.5 150t-149.5 63h-128v-1327q0 -34 23.5 -58t57.5 -24h50v-16h-131h-156h-131v16h49q34 0 58 23.5t24 57.5v1328h-128q-88 -1 -150 -63t-62 -150z" />
    <glyph glyph-name="u" unicode="u" 
d="M1073 1434h131v-17h-50q-34 0 -57.5 -23.5t-23.5 -57.5v-910q0 -178 -124.5 -304.5t-301.5 -129.5h-8q-179 0 -306.5 127.5t-127.5 306.5v910q0 34 -24 57.5t-58 23.5h-49v17h131h156h131v-17h-50q-34 0 -57.5 -23.5t-23.5 -57.5v-910q0 -113 37.5 -209.5t101.5 -152.5
t139 -56q172 0 294.5 122.5t122.5 295.5v910q0 34 -23.5 57.5t-57.5 23.5h-50v17h131h17z" />
    <glyph glyph-name="u" unicode="&#xfc;" 
d="M1073 1434h131v-17h-50q-34 0 -57.5 -23.5t-23.5 -57.5v-910q0 -178 -124.5 -304.5t-301.5 -129.5h-8q-179 0 -306.5 127.5t-127.5 306.5v910q0 34 -24 57.5t-58 23.5h-49v17h131h156h131v-17h-50q-34 0 -57.5 -23.5t-23.5 -57.5v-910q0 -113 37.5 -209.5t101.5 -152.5
t139 -56q172 0 294.5 122.5t122.5 295.5v910q0 34 -23.5 57.5t-57.5 23.5h-50v17h131h17z" />
    <glyph glyph-name="u" unicode="&#xfb;" 
d="M1073 1434h131v-17h-50q-34 0 -57.5 -23.5t-23.5 -57.5v-910q0 -178 -124.5 -304.5t-301.5 -129.5h-8q-179 0 -306.5 127.5t-127.5 306.5v910q0 34 -24 57.5t-58 23.5h-49v17h131h156h131v-17h-50q-34 0 -57.5 -23.5t-23.5 -57.5v-910q0 -113 37.5 -209.5t101.5 -152.5
t139 -56q172 0 294.5 122.5t122.5 295.5v910q0 34 -23.5 57.5t-57.5 23.5h-50v17h131h17z" />
    <glyph glyph-name="u" unicode="&#xfa;" 
d="M1073 1434h131v-17h-50q-34 0 -57.5 -23.5t-23.5 -57.5v-910q0 -178 -124.5 -304.5t-301.5 -129.5h-8q-179 0 -306.5 127.5t-127.5 306.5v910q0 34 -24 57.5t-58 23.5h-49v17h131h156h131v-17h-50q-34 0 -57.5 -23.5t-23.5 -57.5v-910q0 -113 37.5 -209.5t101.5 -152.5
t139 -56q172 0 294.5 122.5t122.5 295.5v910q0 34 -23.5 57.5t-57.5 23.5h-50v17h131h17z" />
    <glyph glyph-name="u" unicode="&#xf9;" 
d="M1073 1434h131v-17h-50q-34 0 -57.5 -23.5t-23.5 -57.5v-910q0 -178 -124.5 -304.5t-301.5 -129.5h-8q-179 0 -306.5 127.5t-127.5 306.5v910q0 34 -24 57.5t-58 23.5h-49v17h131h156h131v-17h-50q-34 0 -57.5 -23.5t-23.5 -57.5v-910q0 -113 37.5 -209.5t101.5 -152.5
t139 -56q172 0 294.5 122.5t122.5 295.5v910q0 34 -23.5 57.5t-57.5 23.5h-50v17h131h17z" />
    <glyph glyph-name="v" unicode="v" 
d="M925 1434h279v-17h-50q-34 0 -65.5 -24.5t-42.5 -59.5l-326 -1089l-54 -181l-20 -65l-1 -6h-13l-400 1342q-10 34 -42 58.5t-67 24.5h-49v17h128h67q40 0 76 -28t48 -68l318 -1065l319 1065q11 34 -7 58q-15 21 -48 21h-50v17z" />
    <glyph glyph-name="w" unicode="w" horiz-adv-x="1632" 
d="M1499 1434h58v-17h-50q-34 0 -65.5 -24.5t-42.5 -59.5l-326 -1089l-42 -140l-31 -106v0l-2 -6h-12l-171 571l-108 -362l-61 -203l-1 -6h-13l-400 1341v0q-11 35 -43 59.5t-66 24.5h-49v17h128h67q40 0 76 -28t48 -68l318 -1065l96 318l-222 743q-11 35 -42.5 59t-65.5 24
h-50v17h128h146h151v-17h-50q-33 0 -48 -21q-16 -22 -7 -57l141 -475l142 474q11 34 -7 58q-15 21 -48 21h-50v17h279v-17h-50q-34 0 -65.5 -24.5t-42.5 -59.5l-149 -497v0l168 -563l318 1065q11 34 -7 58q-15 21 -48 21h-49v17h220z" />
    <glyph glyph-name="x" unicode="x" 
d="M1028 93q17 -35 54 -60t72 -25h50v-16h-126h-79q-39 0 -80.5 27.5t-60.5 66.5l-263 538l-322 -539q-22 -36 -9 -59q10 -18 39 -18h49v-16h-278v16h49q35 0 75 25.5t61 60.5h1l327 548l-338 690v0q-17 35 -54 60t-72 25h-49v17h144h61q40 0 80 -27t60 -67l263 -539
l322 539q22 37 9 60q-9 17 -38 17h-50v17h279v-17h-50q-35 0 -75 -25t-61 -60v0l-327 -548z" />
    <glyph glyph-name="y" unicode="y" 
d="M1146 1434h58v-17h-50q-35 0 -70.5 -25t-51.5 -60l-308 -686l-7 -16v-541q0 -34 24 -57.5t58 -23.5h49v-16h-131h-156h-131v16h50q34 0 57.5 24t23.5 58v539l-315 703q-16 35 -52 60t-71 25h-49v17h144h58q39 0 79 -27.5t58 -66.5l1 -1l301 -673l302 673q15 35 1 59
q-12 19 -43 19h-50v17h221z" />
    <glyph glyph-name="y" unicode="&#xff;" 
d="M1146 1434h58v-17h-50q-35 0 -70.5 -25t-51.5 -60l-308 -686l-7 -16v-541q0 -34 24 -57.5t58 -23.5h49v-16h-131h-156h-131v16h50q34 0 57.5 24t23.5 58v539l-315 703q-16 35 -52 60t-71 25h-49v17h144h58q39 0 79 -27.5t58 -66.5l1 -1l301 -673l302 673q15 35 1 59
q-12 19 -43 19h-50v17h221z" />
    <glyph glyph-name="y" unicode="&#xfd;" 
d="M1146 1434h58v-17h-50q-35 0 -70.5 -25t-51.5 -60l-308 -686l-7 -16v-541q0 -34 24 -57.5t58 -23.5h49v-16h-131h-156h-131v16h50q34 0 57.5 24t23.5 58v539l-315 703q-16 35 -52 60t-71 25h-49v17h144h58q39 0 79 -27.5t58 -66.5l1 -1l301 -673l302 673q15 35 1 59
q-12 19 -43 19h-50v17h221z" />
    <glyph glyph-name="z" unicode="z" 
d="M1154 1434h50v-17h-50q-35 0 -72 -25t-54 -60l-646 -1324h463q88 1 149.5 63t61.5 150v110h17v-339h-229h-475h-90h-79h-126v16h49q35 0 72 25t54 60l648 1324h-464q-88 -1 -150 -63t-62 -150v-110h-16v340h229h471h154h95z" />
    <glyph glyph-name="nonbreakingspace" unicode="&#xa0;" horiz-adv-x="638" 
 />
    <glyph glyph-name="softhyphen" unicode="&#xad;" horiz-adv-x="0" 
 />
    </font>
</defs>
</svg>
